G04 start of page 3 for group 1 idx 1 *
G04 Title: (unknown), solder *
G04 Creator: pcb 20110918 *
G04 CreationDate: Sun 25 Aug 2013 03:12:51 AM GMT UTC *
G04 For: railfan *
G04 Format: Gerber/RS-274X *
G04 PCB-Dimensions: 70000 45000 *
G04 PCB-Coordinate-Origin: lower left *
%MOIN*%
%FSLAX25Y25*%
%LNBOTTOM*%
%ADD28C,0.0380*%
%ADD27C,0.0200*%
%ADD26C,0.0400*%
%ADD25R,0.0230X0.0230*%
%ADD24C,0.0600*%
%ADD23C,0.0001*%
G54D23*G36*
X69000Y22500D02*Y16500D01*
X49500D01*
Y22500D01*
X69000D01*
G37*
G36*
X63500Y3000D02*Y22500D01*
X69000D01*
Y3000D01*
X63500D01*
G37*
G36*
X61500Y1000D02*X1000D01*
Y9000D01*
X7169D01*
X7347Y8848D01*
X7951Y8478D01*
X8605Y8207D01*
X9294Y8042D01*
X10000Y7986D01*
X10706Y8042D01*
X11395Y8207D01*
X12049Y8478D01*
X12653Y8848D01*
X12831Y9000D01*
X61500D01*
Y1000D01*
G37*
G36*
Y15000D02*Y1000D01*
X55500D01*
Y15000D01*
X61500D01*
G37*
G36*
X32000Y35500D02*X33000D01*
X34500Y34000D01*
Y33000D01*
X32000D01*
Y35500D01*
G37*
G36*
X7000Y29500D02*Y35500D01*
X33000D01*
Y29500D01*
X7000D01*
G37*
G36*
X13613Y28000D02*X26500D01*
Y1000D01*
X13613D01*
Y9802D01*
X13652Y9847D01*
X14022Y10451D01*
X14293Y11105D01*
X14458Y11794D01*
X14500Y12500D01*
X14458Y13206D01*
X14293Y13895D01*
X14022Y14549D01*
X13652Y15153D01*
X13613Y15198D01*
Y20353D01*
X13656Y20360D01*
X13768Y20397D01*
X13873Y20452D01*
X13968Y20522D01*
X14051Y20606D01*
X14119Y20702D01*
X14170Y20808D01*
X14318Y21216D01*
X14422Y21637D01*
X14484Y22067D01*
X14505Y22500D01*
X14484Y22933D01*
X14422Y23363D01*
X14318Y23784D01*
X14175Y24194D01*
X14122Y24300D01*
X14053Y24396D01*
X13970Y24481D01*
X13875Y24551D01*
X13769Y24606D01*
X13657Y24643D01*
X13613Y24651D01*
Y28000D01*
G37*
G36*
Y1000D02*X10002D01*
Y7986D01*
X10706Y8042D01*
X11395Y8207D01*
X12049Y8478D01*
X12653Y8848D01*
X13192Y9308D01*
X13613Y9802D01*
Y1000D01*
G37*
G36*
X10002Y28000D02*X13613D01*
Y24651D01*
X13540Y24663D01*
X13421Y24664D01*
X13304Y24646D01*
X13191Y24610D01*
X13085Y24557D01*
X12988Y24488D01*
X12904Y24405D01*
X12833Y24309D01*
X12779Y24204D01*
X12741Y24092D01*
X12722Y23975D01*
X12721Y23856D01*
X12739Y23739D01*
X12777Y23626D01*
X12876Y23355D01*
X12944Y23075D01*
X12986Y22789D01*
X13000Y22500D01*
X12986Y22211D01*
X12944Y21925D01*
X12876Y21645D01*
X12780Y21372D01*
X12742Y21261D01*
X12725Y21144D01*
X12725Y21026D01*
X12745Y20909D01*
X12782Y20797D01*
X12836Y20693D01*
X12906Y20598D01*
X12991Y20515D01*
X13087Y20446D01*
X13192Y20393D01*
X13305Y20357D01*
X13421Y20340D01*
X13539Y20341D01*
X13613Y20353D01*
Y15198D01*
X13192Y15692D01*
X12653Y16152D01*
X12049Y16522D01*
X11395Y16793D01*
X10706Y16958D01*
X10002Y17014D01*
Y17995D01*
X10433Y18016D01*
X10863Y18078D01*
X11284Y18182D01*
X11694Y18325D01*
X11800Y18378D01*
X11896Y18447D01*
X11981Y18530D01*
X12051Y18625D01*
X12106Y18731D01*
X12143Y18843D01*
X12163Y18960D01*
X12164Y19079D01*
X12146Y19196D01*
X12110Y19309D01*
X12057Y19415D01*
X11988Y19512D01*
X11905Y19596D01*
X11809Y19667D01*
X11704Y19721D01*
X11592Y19759D01*
X11475Y19778D01*
X11356Y19779D01*
X11239Y19761D01*
X11126Y19723D01*
X10855Y19624D01*
X10575Y19556D01*
X10289Y19514D01*
X10002Y19500D01*
Y25500D01*
X10289Y25486D01*
X10575Y25444D01*
X10855Y25376D01*
X11128Y25280D01*
X11239Y25242D01*
X11356Y25225D01*
X11474Y25225D01*
X11591Y25245D01*
X11703Y25282D01*
X11807Y25336D01*
X11902Y25406D01*
X11985Y25491D01*
X12054Y25587D01*
X12107Y25692D01*
X12143Y25805D01*
X12160Y25921D01*
X12159Y26039D01*
X12140Y26156D01*
X12103Y26268D01*
X12048Y26373D01*
X11978Y26468D01*
X11894Y26551D01*
X11798Y26619D01*
X11692Y26670D01*
X11284Y26818D01*
X10863Y26922D01*
X10433Y26984D01*
X10002Y27005D01*
Y28000D01*
G37*
G36*
X6387Y9802D02*X6808Y9308D01*
X7347Y8848D01*
X7951Y8478D01*
X8605Y8207D01*
X9294Y8042D01*
X10000Y7986D01*
X10002Y7986D01*
Y1000D01*
X6387D01*
Y9802D01*
G37*
G36*
Y28000D02*X10002D01*
Y27005D01*
X10000Y27005D01*
X9567Y26984D01*
X9137Y26922D01*
X8716Y26818D01*
X8306Y26675D01*
X8200Y26622D01*
X8104Y26553D01*
X8019Y26470D01*
X7949Y26375D01*
X7894Y26269D01*
X7857Y26157D01*
X7837Y26040D01*
X7836Y25921D01*
X7854Y25804D01*
X7890Y25691D01*
X7943Y25585D01*
X8012Y25488D01*
X8095Y25404D01*
X8191Y25333D01*
X8296Y25279D01*
X8408Y25241D01*
X8525Y25222D01*
X8644Y25221D01*
X8761Y25239D01*
X8874Y25277D01*
X9145Y25376D01*
X9425Y25444D01*
X9711Y25486D01*
X10000Y25500D01*
X10002Y25500D01*
Y19500D01*
X10000Y19500D01*
X9711Y19514D01*
X9425Y19556D01*
X9145Y19624D01*
X8872Y19720D01*
X8761Y19758D01*
X8644Y19775D01*
X8526Y19775D01*
X8409Y19755D01*
X8297Y19718D01*
X8193Y19664D01*
X8098Y19594D01*
X8015Y19509D01*
X7946Y19413D01*
X7893Y19308D01*
X7857Y19195D01*
X7840Y19079D01*
X7841Y18961D01*
X7860Y18844D01*
X7897Y18732D01*
X7952Y18627D01*
X8022Y18532D01*
X8106Y18449D01*
X8202Y18381D01*
X8308Y18330D01*
X8716Y18182D01*
X9137Y18078D01*
X9567Y18016D01*
X10000Y17995D01*
X10002Y17995D01*
Y17014D01*
X10000Y17014D01*
X9294Y16958D01*
X8605Y16793D01*
X7951Y16522D01*
X7347Y16152D01*
X6808Y15692D01*
X6387Y15198D01*
Y20349D01*
X6460Y20337D01*
X6579Y20336D01*
X6696Y20354D01*
X6809Y20390D01*
X6915Y20443D01*
X7012Y20512D01*
X7096Y20595D01*
X7167Y20691D01*
X7221Y20796D01*
X7259Y20908D01*
X7278Y21025D01*
X7279Y21144D01*
X7261Y21261D01*
X7223Y21374D01*
X7124Y21645D01*
X7056Y21925D01*
X7014Y22211D01*
X7000Y22500D01*
X7014Y22789D01*
X7056Y23075D01*
X7124Y23355D01*
X7220Y23628D01*
X7258Y23739D01*
X7275Y23856D01*
X7275Y23974D01*
X7255Y24091D01*
X7218Y24203D01*
X7164Y24307D01*
X7094Y24402D01*
X7009Y24485D01*
X6913Y24554D01*
X6808Y24607D01*
X6695Y24643D01*
X6579Y24660D01*
X6461Y24659D01*
X6387Y24647D01*
Y28000D01*
G37*
G36*
X1000Y1000D02*Y28000D01*
X6387D01*
Y24647D01*
X6344Y24640D01*
X6232Y24603D01*
X6127Y24548D01*
X6032Y24478D01*
X5949Y24394D01*
X5881Y24298D01*
X5830Y24192D01*
X5682Y23784D01*
X5578Y23363D01*
X5516Y22933D01*
X5495Y22500D01*
X5516Y22067D01*
X5578Y21637D01*
X5682Y21216D01*
X5825Y20806D01*
X5878Y20700D01*
X5947Y20604D01*
X6030Y20519D01*
X6125Y20449D01*
X6231Y20394D01*
X6343Y20357D01*
X6387Y20349D01*
Y15198D01*
X6348Y15153D01*
X5978Y14549D01*
X5707Y13895D01*
X5542Y13206D01*
X5486Y12500D01*
X5542Y11794D01*
X5707Y11105D01*
X5978Y10451D01*
X6348Y9847D01*
X6387Y9802D01*
Y1000D01*
X1000D01*
G37*
G36*
X7000Y35500D02*Y29500D01*
X13000D01*
Y35500D01*
X7000D01*
G37*
G54D24*X10000Y22500D03*
Y12500D03*
G54D23*G36*
X46077Y33971D02*X51671Y28377D01*
X49550Y26256D01*
X43956Y31850D01*
X46077Y33971D01*
G37*
G54D25*X50700Y33000D02*Y27400D01*
Y17200D02*Y11600D01*
G54D23*G36*
X43956Y12750D02*X49550Y18344D01*
X51671Y16223D01*
X46077Y10629D01*
X43956Y12750D01*
G37*
G36*
X47550Y33850D02*Y29850D01*
X51550D01*
Y33850D01*
X47550D01*
G37*
G54D25*X29300Y33000D02*X50700D01*
G54D23*G36*
X28450Y33850D02*Y29850D01*
X32450D01*
Y33850D01*
X28450D01*
G37*
G54D25*X29300Y33000D02*Y27400D01*
G54D23*G36*
X28329Y28377D02*X33923Y33971D01*
X36044Y31850D01*
X30450Y26256D01*
X28329Y28377D01*
G37*
G36*
X30450Y18344D02*X36044Y12750D01*
X33923Y10629D01*
X28329Y16223D01*
X30450Y18344D01*
G37*
G54D25*X29300Y11600D02*X50700D01*
G54D23*G36*
X47550Y14750D02*Y10750D01*
X51550D01*
Y14750D01*
X47550D01*
G37*
G54D25*X29300Y17200D02*Y11600D01*
G54D23*G36*
X28450Y14750D02*Y10750D01*
X32450D01*
Y14750D01*
X28450D01*
G37*
G54D26*X66500Y6000D03*
Y10500D03*
Y15000D03*
Y19500D03*
X58500Y7500D03*
Y12000D03*
G54D27*G54D28*M02*
