G04 start of page 8 for group -4078 idx -4078 *
G04 Title: (unknown), bottomsilk *
G04 Creator: pcb 20110918 *
G04 CreationDate: Sun 25 Aug 2013 03:12:51 AM GMT UTC *
G04 For: railfan *
G04 Format: Gerber/RS-274X *
G04 PCB-Dimensions: 70000 45000 *
G04 PCB-Coordinate-Origin: lower left *
%MOIN*%
%FSLAX25Y25*%
%LNBOTTOMSILK*%
%ADD44C,0.0080*%
%ADD43C,0.0100*%
G54D43*X500Y500D02*Y44500D01*
X69500D01*
Y500D01*
X500D01*
G54D44*X15500Y30800D02*X16300D01*
X15900D02*Y34000D01*
X15500D02*X16300D01*
X17260Y30800D02*Y34000D01*
Y30800D02*Y31200D01*
X19260Y33200D01*
Y30800D02*Y34000D01*
X17100Y20800D02*X17500Y21200D01*
X15900Y20800D02*X17100D01*
X15500Y21200D02*X15900Y20800D01*
X15500Y21200D02*Y23600D01*
X15900Y24000D01*
X17100D01*
X17500Y23600D01*
Y22800D02*Y23600D01*
X17100Y22400D02*X17500Y22800D01*
X16300Y22400D02*X17100D01*
X18460Y20800D02*Y24000D01*
Y20800D02*Y21200D01*
X20460Y23200D01*
Y20800D02*Y24000D01*
X21820Y20800D02*Y24000D01*
X23020Y20800D02*X23420Y21200D01*
Y23600D01*
X23020Y24000D02*X23420Y23600D01*
X21420Y24000D02*X23020D01*
X21420Y20800D02*X23020D01*
X15500Y11200D02*Y13600D01*
Y11200D02*X15900Y10800D01*
X16700D01*
X17100Y11200D01*
Y13600D01*
X16700Y14000D02*X17100Y13600D01*
X15900Y14000D02*X16700D01*
X15500Y13600D02*X15900Y14000D01*
X18060Y10800D02*Y13600D01*
X18460Y14000D01*
X19260D01*
X19660Y13600D01*
Y10800D02*Y13600D01*
X20620Y10800D02*X22220D01*
X21420D02*Y14000D01*
X20000Y6500D02*X21500D01*
X19500Y6000D02*X20000Y6500D01*
X19500Y3000D02*Y6000D01*
Y3000D02*X20000Y2500D01*
X21500D01*
X22700D02*Y6500D01*
Y4500D02*X24700Y2500D01*
X22700Y4500D02*X24700Y6500D01*
X25900Y2500D02*X27900D01*
X26900D02*Y6500D01*
X29100Y4500D02*X31100D01*
X32300Y2500D02*Y6500D01*
X34300D01*
X35500Y2500D02*X37500D01*
X36500D02*Y6500D01*
X39200D02*X40700D01*
X38700Y6000D02*X39200Y6500D01*
X38700Y3000D02*Y6000D01*
Y3000D02*X39200Y2500D01*
X40700D01*
X41900Y3000D02*X42400Y2500D01*
X43400D01*
X43900Y3000D01*
Y6000D01*
X43400Y6500D02*X43900Y6000D01*
X42400Y6500D02*X43400D01*
X41900Y6000D02*X42400Y6500D01*
Y4500D02*X43900D01*
X45100Y2500D02*X47100D01*
X45100D02*Y4500D01*
X45600Y4000D01*
X46600D01*
X47100Y4500D01*
Y6000D01*
X46600Y6500D02*X47100Y6000D01*
X45600Y6500D02*X46600D01*
X45100Y6000D02*X45600Y6500D01*
X48300Y3000D02*X48800Y2500D01*
X50300D01*
X50800Y3000D01*
Y4000D01*
X48300Y6500D02*X50800Y4000D01*
X48300Y6500D02*X50800D01*
X52000Y6000D02*X52500Y6500D01*
X52000Y5000D02*Y6000D01*
Y5000D02*X52500Y4500D01*
X53500D01*
X54000Y5000D01*
Y6000D01*
X53500Y6500D02*X54000Y6000D01*
X52500Y6500D02*X53500D01*
X52000Y4000D02*X52500Y4500D01*
X52000Y3000D02*Y4000D01*
Y3000D02*X52500Y2500D01*
X53500D01*
X54000Y3000D01*
Y4000D01*
X53500Y4500D02*X54000Y4000D01*
X56000Y33000D02*Y34000D01*
X57000Y35000D01*
X58000Y34000D01*
Y33000D02*Y34000D01*
X59200Y31500D02*X59700Y31000D01*
X61200D01*
X61700Y31500D01*
Y32500D01*
X59200Y35000D02*X61700Y32500D01*
X59200Y35000D02*X61700D01*
X62900D02*X63400D01*
X64600Y34500D02*X65100Y35000D01*
X64600Y31500D02*Y34500D01*
Y31500D02*X65100Y31000D01*
X66100D01*
X66600Y31500D01*
Y34500D01*
X66100Y35000D02*X66600Y34500D01*
X65100Y35000D02*X66100D01*
X64600Y34000D02*X66600Y32000D01*
X15000Y38300D02*X15800D01*
X15400D02*Y41500D01*
X15000D02*X15800D01*
X16760Y40300D02*Y41100D01*
Y40300D02*X17160Y39900D01*
X17960D01*
X18360Y40300D01*
Y41100D01*
X17960Y41500D02*X18360Y41100D01*
X17160Y41500D02*X17960D01*
X16760Y41100D02*X17160Y41500D01*
X19320Y39900D02*Y41100D01*
X19720Y41500D01*
X20120D01*
X20520Y41100D01*
Y39900D02*Y41100D01*
X20920Y41500D01*
X21320D01*
X21720Y41100D01*
Y39900D02*Y41100D01*
X23880Y39900D02*X24280Y40300D01*
X23080Y39900D02*X23880D01*
X22680Y40300D02*X23080Y39900D01*
X22680Y40300D02*Y41100D01*
X23080Y41500D01*
X24280Y39900D02*Y41100D01*
X24680Y41500D01*
X23080D02*X23880D01*
X24280Y41100D01*
X28680Y38300D02*X29080Y38700D01*
X27480Y38300D02*X28680D01*
X27080Y38700D02*X27480Y38300D01*
X27080Y38700D02*Y39500D01*
X27480Y39900D01*
X28680D01*
X29080Y40300D01*
Y41100D01*
X28680Y41500D02*X29080Y41100D01*
X27480Y41500D02*X28680D01*
X27080Y41100D02*X27480Y41500D01*
X30440Y39900D02*X31640D01*
X30040Y40300D02*X30440Y39900D01*
X30040Y40300D02*Y41100D01*
X30440Y41500D01*
X31640D01*
X33800Y39900D02*X34200Y40300D01*
X33000Y39900D02*X33800D01*
X32600Y40300D02*X33000Y39900D01*
X32600Y40300D02*Y41100D01*
X33000Y41500D01*
X34200Y39900D02*Y41100D01*
X34600Y41500D01*
X33000D02*X33800D01*
X34200Y41100D01*
X35560Y38300D02*Y41100D01*
X35960Y41500D01*
X37160D02*X38360D01*
X36760Y41100D02*X37160Y41500D01*
X36760Y40300D02*Y41100D01*
Y40300D02*X37160Y39900D01*
X37960D01*
X38360Y40300D01*
X36760Y40700D02*X38360D01*
Y40300D02*Y40700D01*
X40920Y38300D02*Y41500D01*
X40520D02*X40920Y41100D01*
X39720Y41500D02*X40520D01*
X39320Y41100D02*X39720Y41500D01*
X39320Y40300D02*Y41100D01*
Y40300D02*X39720Y39900D01*
X40520D01*
X40920Y40300D01*
X43320Y39900D02*X44520D01*
X43320Y41500D02*X44920D01*
X43320Y38300D02*Y41500D01*
Y38300D02*X44920D01*
X46280Y40300D02*Y41500D01*
Y40300D02*X46680Y39900D01*
X47080D01*
X47480Y40300D01*
Y41500D01*
X45880Y39900D02*X46280Y40300D01*
X49640Y39900D02*X50040Y40300D01*
X48840Y39900D02*X49640D01*
X48440Y40300D02*X48840Y39900D01*
X48440Y40300D02*Y41100D01*
X48840Y41500D01*
X49640D01*
X50040Y41100D01*
X48440Y42300D02*X48840Y42700D01*
X49640D01*
X50040Y42300D01*
Y39900D02*Y42300D01*
X51000Y39100D02*Y39500D01*
Y40300D02*Y41500D01*
X52200Y40300D02*Y41500D01*
Y40300D02*X52600Y39900D01*
X53000D01*
X53400Y40300D01*
Y41500D01*
X51800Y39900D02*X52200Y40300D01*
X54760Y41500D02*X55960D01*
X54360Y41100D02*X54760Y41500D01*
X54360Y40300D02*Y41100D01*
Y40300D02*X54760Y39900D01*
X55560D01*
X55960Y40300D01*
X54360Y40700D02*X55960D01*
Y40300D02*Y40700D01*
X57320Y41500D02*X58520D01*
X56920Y41100D02*X57320Y41500D01*
X56920Y40300D02*Y41100D01*
Y40300D02*X57320Y39900D01*
X58120D01*
X58520Y40300D01*
X56920Y40700D02*X58520D01*
Y40300D02*Y40700D01*
X59880Y40300D02*Y41500D01*
Y40300D02*X60280Y39900D01*
X61080D01*
X59480D02*X59880Y40300D01*
X62040Y39100D02*Y39500D01*
Y40300D02*Y41500D01*
X63240Y40300D02*Y41500D01*
Y40300D02*X63640Y39900D01*
X64040D01*
X64440Y40300D01*
Y41500D01*
X62840Y39900D02*X63240Y40300D01*
X66600Y39900D02*X67000Y40300D01*
X65800Y39900D02*X66600D01*
X65400Y40300D02*X65800Y39900D01*
X65400Y40300D02*Y41100D01*
X65800Y41500D01*
X66600D01*
X67000Y41100D01*
X65400Y42300D02*X65800Y42700D01*
X66600D01*
X67000Y42300D01*
Y39900D02*Y42300D01*
G54D43*X27000Y35300D02*X49000D01*
X27000D02*Y13300D01*
X31000Y9300D02*X53000D01*
Y31300D02*Y9300D01*
G54D44*X37614Y20314D02*Y24314D01*
X39614D01*
X41314D02*X42314D01*
X41814Y20314D02*Y24314D01*
X40814Y21314D02*X41814Y20314D01*
M02*
