G04 start of page 9 for group -4015 idx -4015 *
G04 Title: (unknown), toppaste *
G04 Creator: pcb 20110918 *
G04 CreationDate: Sun 25 Aug 2013 03:12:51 AM GMT UTC *
G04 For: railfan *
G04 Format: Gerber/RS-274X *
G04 PCB-Dimensions: 70000 45000 *
G04 PCB-Coordinate-Origin: lower left *
%MOIN*%
%FSLAX25Y25*%
%LNTOPPASTE*%
%ADD49C,0.0001*%
%ADD48R,0.0142X0.0142*%
%ADD47R,0.0240X0.0240*%
%ADD46R,0.0098X0.0098*%
%ADD45R,0.0512X0.0512*%
G54D45*X22607Y38043D02*X23393D01*
X22607Y30957D02*X23393D01*
X44607Y22586D02*X45393D01*
X44607Y15500D02*X45393D01*
X33607D02*X34393D01*
X33607Y22586D02*X34393D01*
X22607Y15500D02*X23393D01*
X22607Y22586D02*X23393D01*
G54D46*X53472Y23418D02*X55244D01*
X53472Y21449D02*X55244D01*
X53472Y19481D02*X55244D01*
X53472Y17512D02*X55244D01*
X60756D02*X62528D01*
X60756Y19481D02*X62528D01*
X60756Y21449D02*X62528D01*
X60756Y23418D02*X62528D01*
G54D47*X58000Y22611D02*Y17335D01*
G54D48*X58492Y24087D02*Y16843D01*
G54D49*G36*
X57783Y24795D02*X58867Y23711D01*
X57883Y22727D01*
X56799Y23811D01*
X57783Y24795D01*
G37*
G54D45*X37957Y33893D02*Y33107D01*
X45043Y33893D02*Y33107D01*
M02*
