G04 start of page 2 for group 0 idx 0 *
G04 Title: (unknown), component *
G04 Creator: pcb 20110918 *
G04 CreationDate: Mon 01 Apr 2013 11:48:25 PM GMT UTC *
G04 For: railfan *
G04 Format: Gerber/RS-274X *
G04 PCB-Dimensions: 100000 50000 *
G04 PCB-Coordinate-Origin: lower left *
%MOIN*%
%FSLAX25Y25*%
%LNTOP*%
%ADD22C,0.0380*%
%ADD21C,0.0400*%
%ADD20R,0.0142X0.0142*%
%ADD19R,0.0240X0.0240*%
%ADD18R,0.0098X0.0098*%
%ADD17R,0.0230X0.0230*%
%ADD16R,0.0512X0.0512*%
%ADD15C,0.0600*%
%ADD14C,0.0100*%
%ADD13C,0.0200*%
%ADD12C,0.0500*%
%ADD11C,0.0001*%
G54D11*G36*
X36500Y40500D02*X56000D01*
Y30500D01*
X54500Y29000D01*
X36500D01*
Y40500D01*
G37*
G36*
X13500Y48500D02*X71500D01*
Y41500D01*
X13500D01*
Y48500D01*
G37*
G36*
X13613Y20500D02*X18000D01*
Y1500D01*
X13613D01*
Y12853D01*
X13656Y12860D01*
X13768Y12897D01*
X13873Y12952D01*
X13968Y13022D01*
X14051Y13106D01*
X14119Y13202D01*
X14170Y13308D01*
X14318Y13716D01*
X14422Y14137D01*
X14484Y14567D01*
X14505Y15000D01*
X14484Y15433D01*
X14422Y15863D01*
X14318Y16284D01*
X14175Y16694D01*
X14122Y16800D01*
X14053Y16896D01*
X13970Y16981D01*
X13875Y17051D01*
X13769Y17106D01*
X13657Y17143D01*
X13613Y17151D01*
Y20500D01*
G37*
G36*
X10002Y20495D02*X10108Y20500D01*
X13613D01*
Y17151D01*
X13540Y17163D01*
X13421Y17164D01*
X13304Y17146D01*
X13191Y17110D01*
X13085Y17057D01*
X12988Y16988D01*
X12904Y16905D01*
X12833Y16809D01*
X12779Y16704D01*
X12741Y16592D01*
X12722Y16475D01*
X12721Y16356D01*
X12739Y16239D01*
X12777Y16126D01*
X12876Y15855D01*
X12944Y15575D01*
X12986Y15289D01*
X13000Y15000D01*
X12986Y14711D01*
X12944Y14425D01*
X12876Y14145D01*
X12780Y13872D01*
X12742Y13761D01*
X12725Y13644D01*
X12725Y13526D01*
X12745Y13409D01*
X12782Y13297D01*
X12836Y13193D01*
X12906Y13098D01*
X12991Y13015D01*
X13087Y12946D01*
X13192Y12893D01*
X13305Y12857D01*
X13421Y12840D01*
X13539Y12841D01*
X13613Y12853D01*
Y1500D01*
X10002D01*
Y10495D01*
X10433Y10516D01*
X10863Y10578D01*
X11284Y10682D01*
X11694Y10825D01*
X11800Y10878D01*
X11896Y10947D01*
X11981Y11030D01*
X12051Y11125D01*
X12106Y11231D01*
X12143Y11343D01*
X12163Y11460D01*
X12164Y11579D01*
X12146Y11696D01*
X12110Y11809D01*
X12057Y11915D01*
X11988Y12012D01*
X11905Y12096D01*
X11809Y12167D01*
X11704Y12221D01*
X11592Y12259D01*
X11475Y12278D01*
X11356Y12279D01*
X11239Y12261D01*
X11126Y12223D01*
X10855Y12124D01*
X10575Y12056D01*
X10289Y12014D01*
X10002Y12000D01*
Y18000D01*
X10289Y17986D01*
X10575Y17944D01*
X10855Y17876D01*
X11128Y17780D01*
X11239Y17742D01*
X11356Y17725D01*
X11474Y17725D01*
X11591Y17745D01*
X11703Y17782D01*
X11807Y17836D01*
X11902Y17906D01*
X11985Y17991D01*
X12054Y18087D01*
X12107Y18192D01*
X12143Y18305D01*
X12160Y18421D01*
X12159Y18539D01*
X12140Y18656D01*
X12103Y18768D01*
X12048Y18873D01*
X11978Y18968D01*
X11894Y19051D01*
X11798Y19119D01*
X11692Y19170D01*
X11284Y19318D01*
X10863Y19422D01*
X10433Y19484D01*
X10002Y19505D01*
Y20495D01*
G37*
G36*
X6387Y20500D02*X9892D01*
X10000Y20495D01*
X10002Y20495D01*
Y19505D01*
X10000Y19505D01*
X9567Y19484D01*
X9137Y19422D01*
X8716Y19318D01*
X8306Y19175D01*
X8200Y19122D01*
X8104Y19053D01*
X8019Y18970D01*
X7949Y18875D01*
X7894Y18769D01*
X7857Y18657D01*
X7837Y18540D01*
X7836Y18421D01*
X7854Y18304D01*
X7890Y18191D01*
X7943Y18085D01*
X8012Y17988D01*
X8095Y17904D01*
X8191Y17833D01*
X8296Y17779D01*
X8408Y17741D01*
X8525Y17722D01*
X8644Y17721D01*
X8761Y17739D01*
X8874Y17777D01*
X9145Y17876D01*
X9425Y17944D01*
X9711Y17986D01*
X10000Y18000D01*
X10002Y18000D01*
Y12000D01*
X10000Y12000D01*
X9711Y12014D01*
X9425Y12056D01*
X9145Y12124D01*
X8872Y12220D01*
X8761Y12258D01*
X8644Y12275D01*
X8526Y12275D01*
X8409Y12255D01*
X8297Y12218D01*
X8193Y12164D01*
X8098Y12094D01*
X8015Y12009D01*
X7946Y11913D01*
X7893Y11808D01*
X7857Y11695D01*
X7840Y11579D01*
X7841Y11461D01*
X7860Y11344D01*
X7897Y11232D01*
X7952Y11127D01*
X8022Y11032D01*
X8106Y10949D01*
X8202Y10881D01*
X8308Y10830D01*
X8716Y10682D01*
X9137Y10578D01*
X9567Y10516D01*
X10000Y10495D01*
X10002Y10495D01*
Y1500D01*
X6387D01*
Y12849D01*
X6460Y12837D01*
X6579Y12836D01*
X6696Y12854D01*
X6809Y12890D01*
X6915Y12943D01*
X7012Y13012D01*
X7096Y13095D01*
X7167Y13191D01*
X7221Y13296D01*
X7259Y13408D01*
X7278Y13525D01*
X7279Y13644D01*
X7261Y13761D01*
X7223Y13874D01*
X7124Y14145D01*
X7056Y14425D01*
X7014Y14711D01*
X7000Y15000D01*
X7014Y15289D01*
X7056Y15575D01*
X7124Y15855D01*
X7220Y16128D01*
X7258Y16239D01*
X7275Y16356D01*
X7275Y16474D01*
X7255Y16591D01*
X7218Y16703D01*
X7164Y16807D01*
X7094Y16902D01*
X7009Y16985D01*
X6913Y17054D01*
X6808Y17107D01*
X6695Y17143D01*
X6579Y17160D01*
X6461Y17159D01*
X6387Y17147D01*
Y20500D01*
G37*
G36*
X2500D02*X6387D01*
Y17147D01*
X6344Y17140D01*
X6232Y17103D01*
X6127Y17048D01*
X6032Y16978D01*
X5949Y16894D01*
X5881Y16798D01*
X5830Y16692D01*
X5682Y16284D01*
X5578Y15863D01*
X5516Y15433D01*
X5495Y15000D01*
X5516Y14567D01*
X5578Y14137D01*
X5682Y13716D01*
X5825Y13306D01*
X5878Y13200D01*
X5947Y13104D01*
X6030Y13019D01*
X6125Y12949D01*
X6231Y12894D01*
X6343Y12857D01*
X6387Y12849D01*
Y1500D01*
X2500D01*
Y20500D01*
G37*
G36*
X13750Y48500D02*X16000D01*
Y29500D01*
X13750D01*
Y32748D01*
X13868Y32757D01*
X13982Y32785D01*
X14092Y32830D01*
X14192Y32891D01*
X14282Y32968D01*
X14359Y33058D01*
X14420Y33158D01*
X14465Y33268D01*
X14493Y33382D01*
X14500Y33500D01*
Y36500D01*
X14493Y36618D01*
X14465Y36732D01*
X14420Y36842D01*
X14359Y36942D01*
X14282Y37032D01*
X14192Y37109D01*
X14092Y37170D01*
X13982Y37215D01*
X13868Y37243D01*
X13750Y37252D01*
Y48500D01*
G37*
G36*
X10000D02*X13750D01*
Y37252D01*
X13632Y37243D01*
X13518Y37215D01*
X13408Y37170D01*
X13308Y37109D01*
X13218Y37032D01*
X13141Y36942D01*
X13080Y36842D01*
X13035Y36732D01*
X13007Y36618D01*
X13000Y36500D01*
Y33500D01*
X13007Y33382D01*
X13035Y33268D01*
X13080Y33158D01*
X13141Y33058D01*
X13218Y32968D01*
X13308Y32891D01*
X13408Y32830D01*
X13518Y32785D01*
X13632Y32757D01*
X13750Y32748D01*
Y29500D01*
X10108D01*
X10000Y29505D01*
Y30500D01*
X11500D01*
X11618Y30507D01*
X11732Y30535D01*
X11842Y30580D01*
X11942Y30641D01*
X12032Y30718D01*
X12109Y30808D01*
X12170Y30908D01*
X12215Y31018D01*
X12243Y31132D01*
X12252Y31250D01*
X12243Y31368D01*
X12215Y31482D01*
X12170Y31592D01*
X12109Y31692D01*
X12032Y31782D01*
X11942Y31859D01*
X11842Y31920D01*
X11732Y31965D01*
X11618Y31993D01*
X11500Y32000D01*
X10000D01*
Y38000D01*
X11500D01*
X11618Y38007D01*
X11732Y38035D01*
X11842Y38080D01*
X11942Y38141D01*
X12032Y38218D01*
X12109Y38308D01*
X12170Y38408D01*
X12215Y38518D01*
X12243Y38632D01*
X12252Y38750D01*
X12243Y38868D01*
X12215Y38982D01*
X12170Y39092D01*
X12109Y39192D01*
X12032Y39282D01*
X11942Y39359D01*
X11842Y39420D01*
X11732Y39465D01*
X11618Y39493D01*
X11500Y39500D01*
X10000D01*
Y48500D01*
G37*
G36*
X6250D02*X10000D01*
Y39500D01*
X8500D01*
X8382Y39493D01*
X8268Y39465D01*
X8158Y39420D01*
X8058Y39359D01*
X7968Y39282D01*
X7891Y39192D01*
X7830Y39092D01*
X7785Y38982D01*
X7757Y38868D01*
X7748Y38750D01*
X7757Y38632D01*
X7785Y38518D01*
X7830Y38408D01*
X7891Y38308D01*
X7968Y38218D01*
X8058Y38141D01*
X8158Y38080D01*
X8268Y38035D01*
X8382Y38007D01*
X8500Y38000D01*
X10000D01*
Y32000D01*
X8500D01*
X8382Y31993D01*
X8268Y31965D01*
X8158Y31920D01*
X8058Y31859D01*
X7968Y31782D01*
X7891Y31692D01*
X7830Y31592D01*
X7785Y31482D01*
X7757Y31368D01*
X7748Y31250D01*
X7757Y31132D01*
X7785Y31018D01*
X7830Y30908D01*
X7891Y30808D01*
X7968Y30718D01*
X8058Y30641D01*
X8158Y30580D01*
X8268Y30535D01*
X8382Y30507D01*
X8500Y30500D01*
X10000D01*
Y29505D01*
X10000D01*
X9892Y29500D01*
X6250D01*
Y32748D01*
X6368Y32757D01*
X6482Y32785D01*
X6592Y32830D01*
X6692Y32891D01*
X6782Y32968D01*
X6859Y33058D01*
X6920Y33158D01*
X6965Y33268D01*
X6993Y33382D01*
X7000Y33500D01*
Y36500D01*
X6993Y36618D01*
X6965Y36732D01*
X6920Y36842D01*
X6859Y36942D01*
X6782Y37032D01*
X6692Y37109D01*
X6592Y37170D01*
X6482Y37215D01*
X6368Y37243D01*
X6250Y37252D01*
Y48500D01*
G37*
G36*
X2500Y29500D02*Y48500D01*
X6250D01*
Y37252D01*
X6132Y37243D01*
X6018Y37215D01*
X5908Y37170D01*
X5808Y37109D01*
X5718Y37032D01*
X5641Y36942D01*
X5580Y36842D01*
X5535Y36732D01*
X5507Y36618D01*
X5500Y36500D01*
Y33500D01*
X5507Y33382D01*
X5535Y33268D01*
X5580Y33158D01*
X5641Y33058D01*
X5718Y32968D01*
X5808Y32891D01*
X5908Y32830D01*
X6018Y32785D01*
X6132Y32757D01*
X6250Y32748D01*
Y29500D01*
X2500D01*
G37*
G36*
X70000Y1500D02*Y13500D01*
X93000D01*
Y1500D01*
X70000D01*
G37*
G36*
X70500Y48500D02*X93000D01*
Y35000D01*
X70500D01*
Y48500D01*
G37*
G36*
X57500Y20000D02*X59500D01*
Y16000D01*
X57500D01*
Y20000D01*
G37*
G36*
X56500Y1500D02*Y17000D01*
X60500D01*
Y1500D01*
X56500D01*
G37*
G36*
X58000Y48000D02*X71500D01*
Y28500D01*
X58000D01*
Y48000D01*
G37*
G36*
X61000Y25500D02*Y26500D01*
X64500D01*
Y28500D01*
X61000D01*
Y30500D01*
X71500D01*
Y25500D01*
X61000D01*
G37*
G36*
X59000Y29500D02*Y28500D01*
X57500D01*
X56000Y27000D01*
Y25500D01*
X54000D01*
Y26500D01*
X57000Y29500D01*
X59000D01*
G37*
G36*
X61500Y20500D02*X71500D01*
Y1500D01*
X64500D01*
Y19500D01*
X61500D01*
Y20500D01*
G37*
G36*
X16500Y1500D02*Y20500D01*
X55500D01*
Y19500D01*
X52500D01*
Y1500D01*
X16500D01*
G37*
G54D12*X10000Y25000D02*X22500D01*
G54D13*X34000Y26586D02*Y31000D01*
X32000Y33000D01*
G54D14*X54858Y24019D02*X46067D01*
X45000Y25086D01*
X45086Y26500D02*X45000Y26586D01*
G54D13*Y25000D02*X34000D01*
X32000Y33000D02*Y37000D01*
G54D14*X31957Y37043D01*
X62142Y24019D02*X58500D01*
X62142Y22051D02*X58500D01*
G54D11*G36*
X7000Y38000D02*Y32000D01*
X13000D01*
Y38000D01*
X7000D01*
G37*
G54D15*X10000Y25000D03*
Y15000D03*
G54D16*X60543Y37436D02*Y36650D01*
X53457Y37436D02*Y36650D01*
G54D17*X70800Y34743D02*X92200D01*
X70800D02*Y29143D01*
X92200Y34743D02*Y29143D01*
G54D11*G36*
X69829Y30120D02*X75423Y35714D01*
X77544Y33593D01*
X71950Y27999D01*
X69829Y30120D01*
G37*
G36*
X69950Y35593D02*Y31593D01*
X73950D01*
Y35593D01*
X69950D01*
G37*
G36*
X87577Y35714D02*X93171Y30120D01*
X91050Y27999D01*
X85456Y33593D01*
X87577Y35714D01*
G37*
G36*
X89050Y35593D02*Y31593D01*
X93050D01*
Y35593D01*
X89050D01*
G37*
G54D16*X39043Y37436D02*Y36650D01*
X31957Y37436D02*Y36650D01*
X22607Y25086D02*X23393D01*
X33607D02*X34393D01*
X44607D02*X45393D01*
G54D18*X53972Y20082D02*X55744D01*
X61256Y22051D02*X63028D01*
X61256Y24019D02*X63028D01*
X53972Y25988D02*X55744D01*
X53972Y24019D02*X55744D01*
X53972Y22051D02*X55744D01*
X61256Y25988D02*X63028D01*
G54D19*X58500Y25181D02*Y19905D01*
G54D20*X58992Y26657D02*Y19413D01*
G54D11*G36*
X58283Y27365D02*X59367Y26281D01*
X58383Y25297D01*
X57299Y26381D01*
X58283Y27365D01*
G37*
G54D18*X61256Y20082D02*X63028D01*
G54D17*X70800Y18943D02*Y13343D01*
G54D11*G36*
X71950Y20087D02*X77544Y14493D01*
X75423Y12372D01*
X69829Y17966D01*
X71950Y20087D01*
G37*
G36*
X69950Y16493D02*Y12493D01*
X73950D01*
Y16493D01*
X69950D01*
G37*
G54D17*X70800Y13343D02*X92200D01*
Y18943D02*Y13343D01*
G54D11*G36*
X85456Y14493D02*X91050Y20087D01*
X93171Y17966D01*
X87577Y12372D01*
X85456Y14493D01*
G37*
G36*
X89050Y16493D02*Y12493D01*
X93050D01*
Y16493D01*
X89050D01*
G37*
G54D16*X22607Y18000D02*X23393D01*
X33607D02*X34393D01*
X44607D02*X45393D01*
G54D21*X58500Y14500D03*
Y10000D03*
Y5500D03*
X44000Y31500D03*
X53000D03*
X39500D03*
X48500D03*
G54D13*G54D22*M02*
