G04 start of page 11 for group -3984 idx -3984 *
G04 Title: (unknown), fab *
G04 Creator: pcb 20110918 *
G04 CreationDate: Mon 01 Apr 2013 11:48:25 PM GMT UTC *
G04 For: railfan *
G04 Format: Gerber/RS-274X *
G04 PCB-Dimensions: 100000 50000 *
G04 PCB-Coordinate-Origin: lower left *
%MOIN*%
%FSLAX25Y25*%
%LNFAB*%
%ADD50C,0.0100*%
%ADD49C,0.0060*%
%ADD48R,0.0080X0.0080*%
G54D48*X10000Y36600D02*Y33400D01*
X8400Y35000D02*X11600D01*
X10000Y26600D02*Y23400D01*
X8400Y25000D02*X11600D01*
X10000Y16600D02*Y13400D01*
X8400Y15000D02*X11600D01*
X15000Y92850D02*Y89650D01*
X13400Y91250D02*X16600D01*
G54D49*X135000Y93500D02*Y92750D01*
X136500Y91250D01*
X138000Y92750D01*
Y93500D02*Y92750D01*
X136500Y91250D02*Y87500D01*
X139800Y90500D02*X142050D01*
X139800Y87500D02*X142800D01*
X139800Y93500D02*Y87500D01*
Y93500D02*X142800D01*
X147600D02*X148350Y92750D01*
X145350Y93500D02*X147600D01*
X144600Y92750D02*X145350Y93500D01*
X144600Y92750D02*Y91250D01*
X145350Y90500D01*
X147600D01*
X148350Y89750D01*
Y88250D01*
X147600Y87500D02*X148350Y88250D01*
X145350Y87500D02*X147600D01*
X144600Y88250D02*X145350Y87500D01*
X98000Y92750D02*X98750Y93500D01*
X100250D01*
X101000Y92750D01*
Y88250D01*
X100250Y87500D02*X101000Y88250D01*
X98750Y87500D02*X100250D01*
X98000Y88250D02*X98750Y87500D01*
Y90500D02*X101000D01*
X45000Y88250D02*X45750Y87500D01*
X45000Y92750D02*Y88250D01*
Y92750D02*X45750Y93500D01*
X47250D01*
X48000Y92750D01*
Y88250D01*
X47250Y87500D02*X48000Y88250D01*
X45750Y87500D02*X47250D01*
X45000Y89000D02*X48000Y92000D01*
X49800Y87500D02*X50550D01*
X52350Y88250D02*X53100Y87500D01*
X52350Y92750D02*Y88250D01*
Y92750D02*X53100Y93500D01*
X54600D01*
X55350Y92750D01*
Y88250D01*
X54600Y87500D02*X55350Y88250D01*
X53100Y87500D02*X54600D01*
X52350Y89000D02*X55350Y92000D01*
X57150Y92750D02*X57900Y93500D01*
X59400D01*
X60150Y92750D01*
Y88250D01*
X59400Y87500D02*X60150Y88250D01*
X57900Y87500D02*X59400D01*
X57150Y88250D02*X57900Y87500D01*
Y90500D02*X60150D01*
X61950Y88250D02*X62700Y87500D01*
X61950Y89750D02*Y88250D01*
Y89750D02*X62700Y90500D01*
X64200D01*
X64950Y89750D01*
Y88250D01*
X64200Y87500D02*X64950Y88250D01*
X62700Y87500D02*X64200D01*
X61950Y91250D02*X62700Y90500D01*
X61950Y92750D02*Y91250D01*
Y92750D02*X62700Y93500D01*
X64200D01*
X64950Y92750D01*
Y91250D01*
X64200Y90500D02*X64950Y91250D01*
X44000Y31500D02*Y29900D01*
Y31500D02*X45387Y32300D01*
X44000Y31500D02*X42613Y32300D01*
X53000Y31500D02*Y29900D01*
Y31500D02*X54387Y32300D01*
X53000Y31500D02*X51613Y32300D01*
X39500Y31500D02*Y29900D01*
Y31500D02*X40887Y32300D01*
X39500Y31500D02*X38113Y32300D01*
X48500Y31500D02*Y29900D01*
Y31500D02*X49887Y32300D01*
X48500Y31500D02*X47113Y32300D01*
X58500Y14500D02*Y12900D01*
Y14500D02*X59887Y15300D01*
X58500Y14500D02*X57113Y15300D01*
X58500Y10000D02*Y8400D01*
Y10000D02*X59887Y10800D01*
X58500Y10000D02*X57113Y10800D01*
X58500Y5500D02*Y3900D01*
Y5500D02*X59887Y6300D01*
X58500Y5500D02*X57113Y6300D01*
X15000Y106250D02*Y104650D01*
Y106250D02*X16387Y107050D01*
X15000Y106250D02*X13613Y107050D01*
X135000Y108500D02*Y107750D01*
X136500Y106250D01*
X138000Y107750D01*
Y108500D02*Y107750D01*
X136500Y106250D02*Y102500D01*
X139800Y105500D02*X142050D01*
X139800Y102500D02*X142800D01*
X139800Y108500D02*Y102500D01*
Y108500D02*X142800D01*
X147600D02*X148350Y107750D01*
X145350Y108500D02*X147600D01*
X144600Y107750D02*X145350Y108500D01*
X144600Y107750D02*Y106250D01*
X145350Y105500D01*
X147600D01*
X148350Y104750D01*
Y103250D01*
X147600Y102500D02*X148350Y103250D01*
X145350Y102500D02*X147600D01*
X144600Y103250D02*X145350Y102500D01*
X98000D02*X101750Y106250D01*
Y108500D02*Y106250D01*
X98000Y108500D02*X101750D01*
X45000Y103250D02*X45750Y102500D01*
X45000Y107750D02*Y103250D01*
Y107750D02*X45750Y108500D01*
X47250D01*
X48000Y107750D01*
Y103250D01*
X47250Y102500D02*X48000Y103250D01*
X45750Y102500D02*X47250D01*
X45000Y104000D02*X48000Y107000D01*
X49800Y102500D02*X50550D01*
X52350Y103250D02*X53100Y102500D01*
X52350Y107750D02*Y103250D01*
Y107750D02*X53100Y108500D01*
X54600D01*
X55350Y107750D01*
Y103250D01*
X54600Y102500D02*X55350Y103250D01*
X53100Y102500D02*X54600D01*
X52350Y104000D02*X55350Y107000D01*
X57150Y107750D02*X57900Y108500D01*
X60150D01*
X60900Y107750D01*
Y106250D01*
X57150Y102500D02*X60900Y106250D01*
X57150Y102500D02*X60900D01*
X62700Y103250D02*X63450Y102500D01*
X62700Y107750D02*Y103250D01*
Y107750D02*X63450Y108500D01*
X64950D01*
X65700Y107750D01*
Y103250D01*
X64950Y102500D02*X65700Y103250D01*
X63450Y102500D02*X64950D01*
X62700Y104000D02*X65700Y107000D01*
X3000Y123500D02*X3750Y122750D01*
X750Y123500D02*X3000D01*
X0Y122750D02*X750Y123500D01*
X0Y122750D02*Y121250D01*
X750Y120500D01*
X3000D01*
X3750Y119750D01*
Y118250D01*
X3000Y117500D02*X3750Y118250D01*
X750Y117500D02*X3000D01*
X0Y118250D02*X750Y117500D01*
X5550Y120500D02*Y118250D01*
X6300Y117500D01*
X8550Y120500D02*Y116000D01*
X7800Y115250D02*X8550Y116000D01*
X6300Y115250D02*X7800D01*
X5550Y116000D02*X6300Y115250D01*
Y117500D02*X7800D01*
X8550Y118250D01*
X11100Y119750D02*Y117500D01*
Y119750D02*X11850Y120500D01*
X12600D01*
X13350Y119750D01*
Y117500D01*
Y119750D02*X14100Y120500D01*
X14850D01*
X15600Y119750D01*
Y117500D01*
X10350Y120500D02*X11100Y119750D01*
X17400Y123500D02*Y117500D01*
Y118250D02*X18150Y117500D01*
X19650D01*
X20400Y118250D01*
Y119750D02*Y118250D01*
X19650Y120500D02*X20400Y119750D01*
X18150Y120500D02*X19650D01*
X17400Y119750D02*X18150Y120500D01*
X22200Y119750D02*Y118250D01*
Y119750D02*X22950Y120500D01*
X24450D01*
X25200Y119750D01*
Y118250D01*
X24450Y117500D02*X25200Y118250D01*
X22950Y117500D02*X24450D01*
X22200Y118250D02*X22950Y117500D01*
X27000Y123500D02*Y118250D01*
X27750Y117500D01*
X0Y114250D02*X29250D01*
X41750Y123500D02*Y117500D01*
X44000Y123500D02*X44750Y122750D01*
Y118250D01*
X44000Y117500D02*X44750Y118250D01*
X41000Y117500D02*X44000D01*
X41000Y123500D02*X44000D01*
X46550Y122000D02*Y121250D01*
Y119750D02*Y117500D01*
X50300Y120500D02*X51050Y119750D01*
X48800Y120500D02*X50300D01*
X48050Y119750D02*X48800Y120500D01*
X48050Y119750D02*Y118250D01*
X48800Y117500D01*
X51050Y120500D02*Y118250D01*
X51800Y117500D01*
X48800D02*X50300D01*
X51050Y118250D01*
X54350Y119750D02*Y117500D01*
Y119750D02*X55100Y120500D01*
X55850D01*
X56600Y119750D01*
Y117500D01*
Y119750D02*X57350Y120500D01*
X58100D01*
X58850Y119750D01*
Y117500D01*
X53600Y120500D02*X54350Y119750D01*
X60650Y117500D02*X61400D01*
X65900Y118250D02*X66650Y117500D01*
X65900Y122750D02*X66650Y123500D01*
X65900Y122750D02*Y118250D01*
X68450Y123500D02*X69950D01*
X69200D02*Y117500D01*
X68450D02*X69950D01*
X72500Y119750D02*Y117500D01*
Y119750D02*X73250Y120500D01*
X74000D01*
X74750Y119750D01*
Y117500D01*
X71750Y120500D02*X72500Y119750D01*
X77300Y120500D02*X79550D01*
X76550Y119750D02*X77300Y120500D01*
X76550Y119750D02*Y118250D01*
X77300Y117500D01*
X79550D01*
X81350Y123500D02*Y117500D01*
Y119750D02*X82100Y120500D01*
X83600D01*
X84350Y119750D01*
Y117500D01*
X86150Y123500D02*X86900Y122750D01*
Y118250D01*
X86150Y117500D02*X86900Y118250D01*
X41000Y114250D02*X88700D01*
X95750Y117500D02*X98000D01*
X95000Y118250D02*X95750Y117500D01*
X95000Y122750D02*Y118250D01*
Y122750D02*X95750Y123500D01*
X98000D01*
X99800Y119750D02*Y118250D01*
Y119750D02*X100550Y120500D01*
X102050D01*
X102800Y119750D01*
Y118250D01*
X102050Y117500D02*X102800Y118250D01*
X100550Y117500D02*X102050D01*
X99800Y118250D02*X100550Y117500D01*
X104600Y120500D02*Y118250D01*
X105350Y117500D01*
X106850D01*
X107600Y118250D01*
Y120500D02*Y118250D01*
X110150Y119750D02*Y117500D01*
Y119750D02*X110900Y120500D01*
X111650D01*
X112400Y119750D01*
Y117500D01*
X109400Y120500D02*X110150Y119750D01*
X114950Y123500D02*Y118250D01*
X115700Y117500D01*
X114200Y121250D02*X115700D01*
X95000Y114250D02*X117200D01*
X130750Y123500D02*Y117500D01*
X130000Y123500D02*X133000D01*
X133750Y122750D01*
Y121250D01*
X133000Y120500D02*X133750Y121250D01*
X130750Y120500D02*X133000D01*
X135550Y123500D02*Y118250D01*
X136300Y117500D01*
X140050Y120500D02*X140800Y119750D01*
X138550Y120500D02*X140050D01*
X137800Y119750D02*X138550Y120500D01*
X137800Y119750D02*Y118250D01*
X138550Y117500D01*
X140800Y120500D02*Y118250D01*
X141550Y117500D01*
X138550D02*X140050D01*
X140800Y118250D01*
X144100Y123500D02*Y118250D01*
X144850Y117500D01*
X143350Y121250D02*X144850D01*
X147100Y117500D02*X149350D01*
X146350Y118250D02*X147100Y117500D01*
X146350Y119750D02*Y118250D01*
Y119750D02*X147100Y120500D01*
X148600D01*
X149350Y119750D01*
X146350Y119000D02*X149350D01*
Y119750D02*Y119000D01*
X154150Y123500D02*Y117500D01*
X153400D02*X154150Y118250D01*
X151900Y117500D02*X153400D01*
X151150Y118250D02*X151900Y117500D01*
X151150Y119750D02*Y118250D01*
Y119750D02*X151900Y120500D01*
X153400D01*
X154150Y119750D01*
X157450Y120500D02*Y119750D01*
Y118250D02*Y117500D01*
X155950Y122750D02*Y122000D01*
Y122750D02*X156700Y123500D01*
X158200D01*
X158950Y122750D01*
Y122000D01*
X157450Y120500D02*X158950Y122000D01*
X130000Y114250D02*X160750D01*
X0Y138500D02*X3000D01*
X1500D02*Y132500D01*
X4800Y138500D02*Y132500D01*
Y134750D02*X5550Y135500D01*
X7050D01*
X7800Y134750D01*
Y132500D01*
X10350D02*X12600D01*
X9600Y133250D02*X10350Y132500D01*
X9600Y134750D02*Y133250D01*
Y134750D02*X10350Y135500D01*
X11850D01*
X12600Y134750D01*
X9600Y134000D02*X12600D01*
Y134750D02*Y134000D01*
X15150Y134750D02*Y132500D01*
Y134750D02*X15900Y135500D01*
X17400D01*
X14400D02*X15150Y134750D01*
X19950Y132500D02*X22200D01*
X19200Y133250D02*X19950Y132500D01*
X19200Y134750D02*Y133250D01*
Y134750D02*X19950Y135500D01*
X21450D01*
X22200Y134750D01*
X19200Y134000D02*X22200D01*
Y134750D02*Y134000D01*
X28950Y135500D02*X29700Y134750D01*
X27450Y135500D02*X28950D01*
X26700Y134750D02*X27450Y135500D01*
X26700Y134750D02*Y133250D01*
X27450Y132500D01*
X29700Y135500D02*Y133250D01*
X30450Y132500D01*
X27450D02*X28950D01*
X29700Y133250D01*
X33000Y134750D02*Y132500D01*
Y134750D02*X33750Y135500D01*
X35250D01*
X32250D02*X33000Y134750D01*
X37800Y132500D02*X40050D01*
X37050Y133250D02*X37800Y132500D01*
X37050Y134750D02*Y133250D01*
Y134750D02*X37800Y135500D01*
X39300D01*
X40050Y134750D01*
X37050Y134000D02*X40050D01*
Y134750D02*Y134000D01*
X44550Y137750D02*X45300Y138500D01*
X47550D01*
X48300Y137750D01*
Y136250D01*
X44550Y132500D02*X48300Y136250D01*
X44550Y132500D02*X48300D01*
X55800Y138500D02*Y132500D01*
X55050D02*X55800Y133250D01*
X53550Y132500D02*X55050D01*
X52800Y133250D02*X53550Y132500D01*
X52800Y134750D02*Y133250D01*
Y134750D02*X53550Y135500D01*
X55050D01*
X55800Y134750D01*
X57600Y137000D02*Y136250D01*
Y134750D02*Y132500D01*
X59850Y137750D02*Y132500D01*
Y137750D02*X60600Y138500D01*
X61350D01*
X59100Y135500D02*X60600D01*
X63600Y137750D02*Y132500D01*
Y137750D02*X64350Y138500D01*
X65100D01*
X62850Y135500D02*X64350D01*
X67350Y132500D02*X69600D01*
X66600Y133250D02*X67350Y132500D01*
X66600Y134750D02*Y133250D01*
Y134750D02*X67350Y135500D01*
X68850D01*
X69600Y134750D01*
X66600Y134000D02*X69600D01*
Y134750D02*Y134000D01*
X72150Y134750D02*Y132500D01*
Y134750D02*X72900Y135500D01*
X74400D01*
X71400D02*X72150Y134750D01*
X76950Y132500D02*X79200D01*
X76200Y133250D02*X76950Y132500D01*
X76200Y134750D02*Y133250D01*
Y134750D02*X76950Y135500D01*
X78450D01*
X79200Y134750D01*
X76200Y134000D02*X79200D01*
Y134750D02*Y134000D01*
X81750Y134750D02*Y132500D01*
Y134750D02*X82500Y135500D01*
X83250D01*
X84000Y134750D01*
Y132500D01*
X81000Y135500D02*X81750Y134750D01*
X86550Y138500D02*Y133250D01*
X87300Y132500D01*
X85800Y136250D02*X87300D01*
X94500Y138500D02*Y132500D01*
X93750D02*X94500Y133250D01*
X92250Y132500D02*X93750D01*
X91500Y133250D02*X92250Y132500D01*
X91500Y134750D02*Y133250D01*
Y134750D02*X92250Y135500D01*
X93750D01*
X94500Y134750D01*
X97050D02*Y132500D01*
Y134750D02*X97800Y135500D01*
X99300D01*
X96300D02*X97050Y134750D01*
X101100Y137000D02*Y136250D01*
Y134750D02*Y132500D01*
X102600Y138500D02*Y133250D01*
X103350Y132500D01*
X104850Y138500D02*Y133250D01*
X105600Y132500D01*
X110550D02*X112800D01*
X113550Y133250D01*
X112800Y134000D02*X113550Y133250D01*
X110550Y134000D02*X112800D01*
X109800Y134750D02*X110550Y134000D01*
X109800Y134750D02*X110550Y135500D01*
X112800D01*
X113550Y134750D01*
X109800Y133250D02*X110550Y132500D01*
X115350Y137000D02*Y136250D01*
Y134750D02*Y132500D01*
X116850Y135500D02*X119850D01*
X116850Y132500D02*X119850Y135500D01*
X116850Y132500D02*X119850D01*
X122400D02*X124650D01*
X121650Y133250D02*X122400Y132500D01*
X121650Y134750D02*Y133250D01*
Y134750D02*X122400Y135500D01*
X123900D01*
X124650Y134750D01*
X121650Y134000D02*X124650D01*
Y134750D02*Y134000D01*
X127200Y132500D02*X129450D01*
X130200Y133250D01*
X129450Y134000D02*X130200Y133250D01*
X127200Y134000D02*X129450D01*
X126450Y134750D02*X127200Y134000D01*
X126450Y134750D02*X127200Y135500D01*
X129450D01*
X130200Y134750D01*
X126450Y133250D02*X127200Y132500D01*
X134700Y135500D02*Y133250D01*
X135450Y132500D01*
X136950D01*
X137700Y133250D01*
Y135500D02*Y133250D01*
X140250Y132500D02*X142500D01*
X143250Y133250D01*
X142500Y134000D02*X143250Y133250D01*
X140250Y134000D02*X142500D01*
X139500Y134750D02*X140250Y134000D01*
X139500Y134750D02*X140250Y135500D01*
X142500D01*
X143250Y134750D01*
X139500Y133250D02*X140250Y132500D01*
X145800D02*X148050D01*
X145050Y133250D02*X145800Y132500D01*
X145050Y134750D02*Y133250D01*
Y134750D02*X145800Y135500D01*
X147300D01*
X148050Y134750D01*
X145050Y134000D02*X148050D01*
Y134750D02*Y134000D01*
X152850Y138500D02*Y132500D01*
X152100D02*X152850Y133250D01*
X150600Y132500D02*X152100D01*
X149850Y133250D02*X150600Y132500D01*
X149850Y134750D02*Y133250D01*
Y134750D02*X150600Y135500D01*
X152100D01*
X152850Y134750D01*
X157350Y137000D02*Y136250D01*
Y134750D02*Y132500D01*
X159600Y134750D02*Y132500D01*
Y134750D02*X160350Y135500D01*
X161100D01*
X161850Y134750D01*
Y132500D01*
X158850Y135500D02*X159600Y134750D01*
X167100Y138500D02*Y133250D01*
X167850Y132500D01*
X166350Y136250D02*X167850D01*
X169350Y138500D02*Y132500D01*
Y134750D02*X170100Y135500D01*
X171600D01*
X172350Y134750D01*
Y132500D01*
X174150Y137000D02*Y136250D01*
Y134750D02*Y132500D01*
X176400D02*X178650D01*
X179400Y133250D01*
X178650Y134000D02*X179400Y133250D01*
X176400Y134000D02*X178650D01*
X175650Y134750D02*X176400Y134000D01*
X175650Y134750D02*X176400Y135500D01*
X178650D01*
X179400Y134750D01*
X175650Y133250D02*X176400Y132500D01*
X183900Y138500D02*Y133250D01*
X184650Y132500D01*
X188400Y135500D02*X189150Y134750D01*
X186900Y135500D02*X188400D01*
X186150Y134750D02*X186900Y135500D01*
X186150Y134750D02*Y133250D01*
X186900Y132500D01*
X189150Y135500D02*Y133250D01*
X189900Y132500D01*
X186900D02*X188400D01*
X189150Y133250D01*
X191700Y135500D02*Y133250D01*
X192450Y132500D01*
X194700Y135500D02*Y131000D01*
X193950Y130250D02*X194700Y131000D01*
X192450Y130250D02*X193950D01*
X191700Y131000D02*X192450Y130250D01*
Y132500D02*X193950D01*
X194700Y133250D01*
X196500Y134750D02*Y133250D01*
Y134750D02*X197250Y135500D01*
X198750D01*
X199500Y134750D01*
Y133250D01*
X198750Y132500D02*X199500Y133250D01*
X197250Y132500D02*X198750D01*
X196500Y133250D02*X197250Y132500D01*
X201300Y135500D02*Y133250D01*
X202050Y132500D01*
X203550D01*
X204300Y133250D01*
Y135500D02*Y133250D01*
X206850Y138500D02*Y133250D01*
X207600Y132500D01*
X206100Y136250D02*X207600D01*
X209100Y131000D02*X210600Y132500D01*
X215850D02*X217350D01*
X216600Y138500D02*Y132500D01*
X215100Y137000D02*X216600Y138500D01*
X219150Y133250D02*X219900Y132500D01*
X219150Y137750D02*Y133250D01*
Y137750D02*X219900Y138500D01*
X221400D01*
X222150Y137750D01*
Y133250D01*
X221400Y132500D02*X222150Y133250D01*
X219900Y132500D02*X221400D01*
X219150Y134000D02*X222150Y137000D01*
X226650Y138500D02*Y132500D01*
Y134750D02*X227400Y135500D01*
X228900D01*
X229650Y134750D01*
Y132500D01*
X231450Y134750D02*Y133250D01*
Y134750D02*X232200Y135500D01*
X233700D01*
X234450Y134750D01*
Y133250D01*
X233700Y132500D02*X234450Y133250D01*
X232200Y132500D02*X233700D01*
X231450Y133250D02*X232200Y132500D01*
X236250Y138500D02*Y133250D01*
X237000Y132500D01*
X239250D02*X241500D01*
X238500Y133250D02*X239250Y132500D01*
X238500Y134750D02*Y133250D01*
Y134750D02*X239250Y135500D01*
X240750D01*
X241500Y134750D01*
X238500Y134000D02*X241500D01*
Y134750D02*Y134000D01*
X244050Y132500D02*X246300D01*
X247050Y133250D01*
X246300Y134000D02*X247050Y133250D01*
X244050Y134000D02*X246300D01*
X243300Y134750D02*X244050Y134000D01*
X243300Y134750D02*X244050Y135500D01*
X246300D01*
X247050Y134750D01*
X243300Y133250D02*X244050Y132500D01*
X252300Y138500D02*Y133250D01*
X253050Y132500D01*
X251550Y136250D02*X253050D01*
X254550Y134750D02*Y133250D01*
Y134750D02*X255300Y135500D01*
X256800D01*
X257550Y134750D01*
Y133250D01*
X256800Y132500D02*X257550Y133250D01*
X255300Y132500D02*X256800D01*
X254550Y133250D02*X255300Y132500D01*
X260100Y138500D02*Y133250D01*
X260850Y132500D01*
X259350Y136250D02*X260850D01*
X264600Y135500D02*X265350Y134750D01*
X263100Y135500D02*X264600D01*
X262350Y134750D02*X263100Y135500D01*
X262350Y134750D02*Y133250D01*
X263100Y132500D01*
X265350Y135500D02*Y133250D01*
X266100Y132500D01*
X263100D02*X264600D01*
X265350Y133250D01*
X267900Y138500D02*Y133250D01*
X268650Y132500D01*
G54D50*X0Y50000D02*X100000D01*
X0D02*Y0D01*
X100000Y50000D02*Y0D01*
X0D02*X100000D01*
G54D49*X200000Y63500D02*Y57500D01*
Y63500D02*X202250Y61250D01*
X204500Y63500D01*
Y57500D01*
X208550Y60500D02*X209300Y59750D01*
X207050Y60500D02*X208550D01*
X206300Y59750D02*X207050Y60500D01*
X206300Y59750D02*Y58250D01*
X207050Y57500D01*
X209300Y60500D02*Y58250D01*
X210050Y57500D01*
X207050D02*X208550D01*
X209300Y58250D01*
X211850Y60500D02*X214850Y57500D01*
X211850D02*X214850Y60500D01*
X216650Y62000D02*Y61250D01*
Y59750D02*Y57500D01*
X218900Y59750D02*Y57500D01*
Y59750D02*X219650Y60500D01*
X220400D01*
X221150Y59750D01*
Y57500D01*
Y59750D02*X221900Y60500D01*
X222650D01*
X223400Y59750D01*
Y57500D01*
X218150Y60500D02*X218900Y59750D01*
X225200Y60500D02*Y58250D01*
X225950Y57500D01*
X227450D01*
X228200Y58250D01*
Y60500D02*Y58250D01*
X230750Y59750D02*Y57500D01*
Y59750D02*X231500Y60500D01*
X232250D01*
X233000Y59750D01*
Y57500D01*
Y59750D02*X233750Y60500D01*
X234500D01*
X235250Y59750D01*
Y57500D01*
X230000Y60500D02*X230750Y59750D01*
X240500Y63500D02*Y57500D01*
X242750Y63500D02*X243500Y62750D01*
Y58250D01*
X242750Y57500D02*X243500Y58250D01*
X239750Y57500D02*X242750D01*
X239750Y63500D02*X242750D01*
X245300Y62000D02*Y61250D01*
Y59750D02*Y57500D01*
X247550Y59750D02*Y57500D01*
Y59750D02*X248300Y60500D01*
X249050D01*
X249800Y59750D01*
Y57500D01*
Y59750D02*X250550Y60500D01*
X251300D01*
X252050Y59750D01*
Y57500D01*
X246800Y60500D02*X247550Y59750D01*
X254600Y57500D02*X256850D01*
X253850Y58250D02*X254600Y57500D01*
X253850Y59750D02*Y58250D01*
Y59750D02*X254600Y60500D01*
X256100D01*
X256850Y59750D01*
X253850Y59000D02*X256850D01*
Y59750D02*Y59000D01*
X259400Y59750D02*Y57500D01*
Y59750D02*X260150Y60500D01*
X260900D01*
X261650Y59750D01*
Y57500D01*
X258650Y60500D02*X259400Y59750D01*
X264200Y57500D02*X266450D01*
X267200Y58250D01*
X266450Y59000D02*X267200Y58250D01*
X264200Y59000D02*X266450D01*
X263450Y59750D02*X264200Y59000D01*
X263450Y59750D02*X264200Y60500D01*
X266450D01*
X267200Y59750D01*
X263450Y58250D02*X264200Y57500D01*
X269000Y62000D02*Y61250D01*
Y59750D02*Y57500D01*
X270500Y59750D02*Y58250D01*
Y59750D02*X271250Y60500D01*
X272750D01*
X273500Y59750D01*
Y58250D01*
X272750Y57500D02*X273500Y58250D01*
X271250Y57500D02*X272750D01*
X270500Y58250D02*X271250Y57500D01*
X276050Y59750D02*Y57500D01*
Y59750D02*X276800Y60500D01*
X277550D01*
X278300Y59750D01*
Y57500D01*
X275300Y60500D02*X276050Y59750D01*
X280850Y57500D02*X283100D01*
X283850Y58250D01*
X283100Y59000D02*X283850Y58250D01*
X280850Y59000D02*X283100D01*
X280100Y59750D02*X280850Y59000D01*
X280100Y59750D02*X280850Y60500D01*
X283100D01*
X283850Y59750D01*
X280100Y58250D02*X280850Y57500D01*
X285650Y61250D02*X286400D01*
X285650Y59750D02*X286400D01*
X291650Y57500D02*X293150D01*
X292400Y63500D02*Y57500D01*
X290900Y62000D02*X292400Y63500D01*
X294950Y58250D02*X295700Y57500D01*
X294950Y62750D02*Y58250D01*
Y62750D02*X295700Y63500D01*
X297200D01*
X297950Y62750D01*
Y58250D01*
X297200Y57500D02*X297950Y58250D01*
X295700Y57500D02*X297200D01*
X294950Y59000D02*X297950Y62000D01*
X299750Y58250D02*X300500Y57500D01*
X299750Y62750D02*Y58250D01*
Y62750D02*X300500Y63500D01*
X302000D01*
X302750Y62750D01*
Y58250D01*
X302000Y57500D02*X302750Y58250D01*
X300500Y57500D02*X302000D01*
X299750Y59000D02*X302750Y62000D01*
X304550Y58250D02*X305300Y57500D01*
X304550Y62750D02*Y58250D01*
Y62750D02*X305300Y63500D01*
X306800D01*
X307550Y62750D01*
Y58250D01*
X306800Y57500D02*X307550Y58250D01*
X305300Y57500D02*X306800D01*
X304550Y59000D02*X307550Y62000D01*
X309350Y57500D02*X310100D01*
X311900Y58250D02*X312650Y57500D01*
X311900Y62750D02*Y58250D01*
Y62750D02*X312650Y63500D01*
X314150D01*
X314900Y62750D01*
Y58250D01*
X314150Y57500D02*X314900Y58250D01*
X312650Y57500D02*X314150D01*
X311900Y59000D02*X314900Y62000D01*
X316700Y58250D02*X317450Y57500D01*
X316700Y62750D02*Y58250D01*
Y62750D02*X317450Y63500D01*
X318950D01*
X319700Y62750D01*
Y58250D01*
X318950Y57500D02*X319700Y58250D01*
X317450Y57500D02*X318950D01*
X316700Y59000D02*X319700Y62000D01*
X321500Y58250D02*X322250Y57500D01*
X321500Y62750D02*Y58250D01*
Y62750D02*X322250Y63500D01*
X323750D01*
X324500Y62750D01*
Y58250D01*
X323750Y57500D02*X324500Y58250D01*
X322250Y57500D02*X323750D01*
X321500Y59000D02*X324500Y62000D01*
X326300Y58250D02*X327050Y57500D01*
X326300Y62750D02*Y58250D01*
Y62750D02*X327050Y63500D01*
X328550D01*
X329300Y62750D01*
Y58250D01*
X328550Y57500D02*X329300Y58250D01*
X327050Y57500D02*X328550D01*
X326300Y59000D02*X329300Y62000D01*
X331100Y58250D02*X331850Y57500D01*
X331100Y62750D02*Y58250D01*
Y62750D02*X331850Y63500D01*
X333350D01*
X334100Y62750D01*
Y58250D01*
X333350Y57500D02*X334100Y58250D01*
X331850Y57500D02*X333350D01*
X331100Y59000D02*X334100Y62000D01*
X335900Y58250D02*X336650Y57500D01*
X335900Y62750D02*Y58250D01*
Y62750D02*X336650Y63500D01*
X338150D01*
X338900Y62750D01*
Y58250D01*
X338150Y57500D02*X338900Y58250D01*
X336650Y57500D02*X338150D01*
X335900Y59000D02*X338900Y62000D01*
X344150Y59750D02*Y57500D01*
Y59750D02*X344900Y60500D01*
X345650D01*
X346400Y59750D01*
Y57500D01*
Y59750D02*X347150Y60500D01*
X347900D01*
X348650Y59750D01*
Y57500D01*
X343400Y60500D02*X344150Y59750D01*
X350450Y62000D02*Y61250D01*
Y59750D02*Y57500D01*
X351950Y63500D02*Y58250D01*
X352700Y57500D01*
X354950D02*X357200D01*
X357950Y58250D01*
X357200Y59000D02*X357950Y58250D01*
X354950Y59000D02*X357200D01*
X354200Y59750D02*X354950Y59000D01*
X354200Y59750D02*X354950Y60500D01*
X357200D01*
X357950Y59750D01*
X354200Y58250D02*X354950Y57500D01*
X362450Y60500D02*Y58250D01*
X363200Y57500D01*
X363950D01*
X364700Y58250D01*
Y60500D02*Y58250D01*
X365450Y57500D01*
X366200D01*
X366950Y58250D01*
Y60500D02*Y58250D01*
X368750Y62000D02*Y61250D01*
Y59750D02*Y57500D01*
X373250Y63500D02*Y57500D01*
X372500D02*X373250Y58250D01*
X371000Y57500D02*X372500D01*
X370250Y58250D02*X371000Y57500D01*
X370250Y59750D02*Y58250D01*
Y59750D02*X371000Y60500D01*
X372500D01*
X373250Y59750D01*
X375800Y57500D02*X378050D01*
X375050Y58250D02*X375800Y57500D01*
X375050Y59750D02*Y58250D01*
Y59750D02*X375800Y60500D01*
X377300D01*
X378050Y59750D01*
X375050Y59000D02*X378050D01*
Y59750D02*Y59000D01*
X379850Y56000D02*X381350Y57500D01*
X385850Y63500D02*X388850D01*
X385850D02*Y60500D01*
X386600Y61250D01*
X388100D01*
X388850Y60500D01*
Y58250D01*
X388100Y57500D02*X388850Y58250D01*
X386600Y57500D02*X388100D01*
X385850Y58250D02*X386600Y57500D01*
X390650Y58250D02*X391400Y57500D01*
X390650Y62750D02*Y58250D01*
Y62750D02*X391400Y63500D01*
X392900D01*
X393650Y62750D01*
Y58250D01*
X392900Y57500D02*X393650Y58250D01*
X391400Y57500D02*X392900D01*
X390650Y59000D02*X393650Y62000D01*
X395450Y58250D02*X396200Y57500D01*
X395450Y62750D02*Y58250D01*
Y62750D02*X396200Y63500D01*
X397700D01*
X398450Y62750D01*
Y58250D01*
X397700Y57500D02*X398450Y58250D01*
X396200Y57500D02*X397700D01*
X395450Y59000D02*X398450Y62000D01*
X400250Y57500D02*X401000D01*
X402800Y58250D02*X403550Y57500D01*
X402800Y62750D02*Y58250D01*
Y62750D02*X403550Y63500D01*
X405050D01*
X405800Y62750D01*
Y58250D01*
X405050Y57500D02*X405800Y58250D01*
X403550Y57500D02*X405050D01*
X402800Y59000D02*X405800Y62000D01*
X407600Y58250D02*X408350Y57500D01*
X407600Y62750D02*Y58250D01*
Y62750D02*X408350Y63500D01*
X409850D01*
X410600Y62750D01*
Y58250D01*
X409850Y57500D02*X410600Y58250D01*
X408350Y57500D02*X409850D01*
X407600Y59000D02*X410600Y62000D01*
X412400Y58250D02*X413150Y57500D01*
X412400Y62750D02*Y58250D01*
Y62750D02*X413150Y63500D01*
X414650D01*
X415400Y62750D01*
Y58250D01*
X414650Y57500D02*X415400Y58250D01*
X413150Y57500D02*X414650D01*
X412400Y59000D02*X415400Y62000D01*
X417200Y58250D02*X417950Y57500D01*
X417200Y62750D02*Y58250D01*
Y62750D02*X417950Y63500D01*
X419450D01*
X420200Y62750D01*
Y58250D01*
X419450Y57500D02*X420200Y58250D01*
X417950Y57500D02*X419450D01*
X417200Y59000D02*X420200Y62000D01*
X422000Y58250D02*X422750Y57500D01*
X422000Y62750D02*Y58250D01*
Y62750D02*X422750Y63500D01*
X424250D01*
X425000Y62750D01*
Y58250D01*
X424250Y57500D02*X425000Y58250D01*
X422750Y57500D02*X424250D01*
X422000Y59000D02*X425000Y62000D01*
X426800Y58250D02*X427550Y57500D01*
X426800Y62750D02*Y58250D01*
Y62750D02*X427550Y63500D01*
X429050D01*
X429800Y62750D01*
Y58250D01*
X429050Y57500D02*X429800Y58250D01*
X427550Y57500D02*X429050D01*
X426800Y59000D02*X429800Y62000D01*
X435050Y59750D02*Y57500D01*
Y59750D02*X435800Y60500D01*
X436550D01*
X437300Y59750D01*
Y57500D01*
Y59750D02*X438050Y60500D01*
X438800D01*
X439550Y59750D01*
Y57500D01*
X434300Y60500D02*X435050Y59750D01*
X441350Y62000D02*Y61250D01*
Y59750D02*Y57500D01*
X442850Y63500D02*Y58250D01*
X443600Y57500D01*
X445850D02*X448100D01*
X448850Y58250D01*
X448100Y59000D02*X448850Y58250D01*
X445850Y59000D02*X448100D01*
X445100Y59750D02*X445850Y59000D01*
X445100Y59750D02*X445850Y60500D01*
X448100D01*
X448850Y59750D01*
X445100Y58250D02*X445850Y57500D01*
X453350Y63500D02*Y57500D01*
Y59750D02*X454100Y60500D01*
X455600D01*
X456350Y59750D01*
Y57500D01*
X458150Y62000D02*Y61250D01*
Y59750D02*Y57500D01*
X461900Y60500D02*X462650Y59750D01*
X460400Y60500D02*X461900D01*
X459650Y59750D02*X460400Y60500D01*
X459650Y59750D02*Y58250D01*
X460400Y57500D01*
X461900D01*
X462650Y58250D01*
X459650Y56000D02*X460400Y55250D01*
X461900D01*
X462650Y56000D01*
Y60500D02*Y56000D01*
X464450Y63500D02*Y57500D01*
Y59750D02*X465200Y60500D01*
X466700D01*
X467450Y59750D01*
Y57500D01*
X0Y-9500D02*X3000D01*
X3750Y-8750D01*
Y-7250D02*Y-8750D01*
X3000Y-6500D02*X3750Y-7250D01*
X750Y-6500D02*X3000D01*
X750Y-3500D02*Y-9500D01*
X0Y-3500D02*X3000D01*
X3750Y-4250D01*
Y-5750D01*
X3000Y-6500D02*X3750Y-5750D01*
X5550Y-7250D02*Y-8750D01*
Y-7250D02*X6300Y-6500D01*
X7800D01*
X8550Y-7250D01*
Y-8750D01*
X7800Y-9500D02*X8550Y-8750D01*
X6300Y-9500D02*X7800D01*
X5550Y-8750D02*X6300Y-9500D01*
X12600Y-6500D02*X13350Y-7250D01*
X11100Y-6500D02*X12600D01*
X10350Y-7250D02*X11100Y-6500D01*
X10350Y-7250D02*Y-8750D01*
X11100Y-9500D01*
X13350Y-6500D02*Y-8750D01*
X14100Y-9500D01*
X11100D02*X12600D01*
X13350Y-8750D01*
X16650Y-7250D02*Y-9500D01*
Y-7250D02*X17400Y-6500D01*
X18900D01*
X15900D02*X16650Y-7250D01*
X23700Y-3500D02*Y-9500D01*
X22950D02*X23700Y-8750D01*
X21450Y-9500D02*X22950D01*
X20700Y-8750D02*X21450Y-9500D01*
X20700Y-7250D02*Y-8750D01*
Y-7250D02*X21450Y-6500D01*
X22950D01*
X23700Y-7250D01*
X28200D02*Y-8750D01*
Y-7250D02*X28950Y-6500D01*
X30450D01*
X31200Y-7250D01*
Y-8750D01*
X30450Y-9500D02*X31200Y-8750D01*
X28950Y-9500D02*X30450D01*
X28200Y-8750D02*X28950Y-9500D01*
X33000Y-6500D02*Y-8750D01*
X33750Y-9500D01*
X35250D01*
X36000Y-8750D01*
Y-6500D02*Y-8750D01*
X38550Y-3500D02*Y-8750D01*
X39300Y-9500D01*
X37800Y-5750D02*X39300D01*
X40800Y-3500D02*Y-8750D01*
X41550Y-9500D01*
X43050Y-5000D02*Y-5750D01*
Y-7250D02*Y-9500D01*
X45300Y-7250D02*Y-9500D01*
Y-7250D02*X46050Y-6500D01*
X46800D01*
X47550Y-7250D01*
Y-9500D01*
X44550Y-6500D02*X45300Y-7250D01*
X50100Y-9500D02*X52350D01*
X49350Y-8750D02*X50100Y-9500D01*
X49350Y-7250D02*Y-8750D01*
Y-7250D02*X50100Y-6500D01*
X51600D01*
X52350Y-7250D01*
X49350Y-8000D02*X52350D01*
Y-7250D02*Y-8000D01*
X56850Y-5000D02*Y-5750D01*
Y-7250D02*Y-9500D01*
X59100D02*X61350D01*
X62100Y-8750D01*
X61350Y-8000D02*X62100Y-8750D01*
X59100Y-8000D02*X61350D01*
X58350Y-7250D02*X59100Y-8000D01*
X58350Y-7250D02*X59100Y-6500D01*
X61350D01*
X62100Y-7250D01*
X58350Y-8750D02*X59100Y-9500D01*
X67350Y-3500D02*Y-8750D01*
X68100Y-9500D01*
X66600Y-5750D02*X68100D01*
X69600Y-3500D02*Y-9500D01*
Y-7250D02*X70350Y-6500D01*
X71850D01*
X72600Y-7250D01*
Y-9500D01*
X75150D02*X77400D01*
X74400Y-8750D02*X75150Y-9500D01*
X74400Y-7250D02*Y-8750D01*
Y-7250D02*X75150Y-6500D01*
X76650D01*
X77400Y-7250D01*
X74400Y-8000D02*X77400D01*
Y-7250D02*Y-8000D01*
X82650Y-6500D02*X84900D01*
X81900Y-7250D02*X82650Y-6500D01*
X81900Y-7250D02*Y-8750D01*
X82650Y-9500D01*
X84900D01*
X87450D02*X89700D01*
X86700Y-8750D02*X87450Y-9500D01*
X86700Y-7250D02*Y-8750D01*
Y-7250D02*X87450Y-6500D01*
X88950D01*
X89700Y-7250D01*
X86700Y-8000D02*X89700D01*
Y-7250D02*Y-8000D01*
X92250Y-7250D02*Y-9500D01*
Y-7250D02*X93000Y-6500D01*
X93750D01*
X94500Y-7250D01*
Y-9500D01*
X91500Y-6500D02*X92250Y-7250D01*
X97050Y-3500D02*Y-8750D01*
X97800Y-9500D01*
X96300Y-5750D02*X97800D01*
X100050Y-9500D02*X102300D01*
X99300Y-8750D02*X100050Y-9500D01*
X99300Y-7250D02*Y-8750D01*
Y-7250D02*X100050Y-6500D01*
X101550D01*
X102300Y-7250D01*
X99300Y-8000D02*X102300D01*
Y-7250D02*Y-8000D01*
X104850Y-7250D02*Y-9500D01*
Y-7250D02*X105600Y-6500D01*
X107100D01*
X104100D02*X104850Y-7250D01*
X108900Y-3500D02*Y-8750D01*
X109650Y-9500D01*
X111150Y-5000D02*Y-5750D01*
Y-7250D02*Y-9500D01*
X113400Y-7250D02*Y-9500D01*
Y-7250D02*X114150Y-6500D01*
X114900D01*
X115650Y-7250D01*
Y-9500D01*
X112650Y-6500D02*X113400Y-7250D01*
X118200Y-9500D02*X120450D01*
X117450Y-8750D02*X118200Y-9500D01*
X117450Y-7250D02*Y-8750D01*
Y-7250D02*X118200Y-6500D01*
X119700D01*
X120450Y-7250D01*
X117450Y-8000D02*X120450D01*
Y-7250D02*Y-8000D01*
X124950Y-7250D02*Y-8750D01*
Y-7250D02*X125700Y-6500D01*
X127200D01*
X127950Y-7250D01*
Y-8750D01*
X127200Y-9500D02*X127950Y-8750D01*
X125700Y-9500D02*X127200D01*
X124950Y-8750D02*X125700Y-9500D01*
X130500Y-4250D02*Y-9500D01*
Y-4250D02*X131250Y-3500D01*
X132000D01*
X129750Y-6500D02*X131250D01*
X136950Y-3500D02*Y-8750D01*
X137700Y-9500D01*
X136200Y-5750D02*X137700D01*
X139200Y-3500D02*Y-9500D01*
Y-7250D02*X139950Y-6500D01*
X141450D01*
X142200Y-7250D01*
Y-9500D01*
X144000Y-5000D02*Y-5750D01*
Y-7250D02*Y-9500D01*
X146250D02*X148500D01*
X149250Y-8750D01*
X148500Y-8000D02*X149250Y-8750D01*
X146250Y-8000D02*X148500D01*
X145500Y-7250D02*X146250Y-8000D01*
X145500Y-7250D02*X146250Y-6500D01*
X148500D01*
X149250Y-7250D01*
X145500Y-8750D02*X146250Y-9500D01*
X153750Y-8750D02*X154500Y-9500D01*
X153750Y-7250D02*Y-8750D01*
Y-7250D02*X154500Y-6500D01*
X156000D01*
X156750Y-7250D01*
Y-8750D01*
X156000Y-9500D02*X156750Y-8750D01*
X154500Y-9500D02*X156000D01*
X153750Y-5750D02*X154500Y-6500D01*
X153750Y-4250D02*Y-5750D01*
Y-4250D02*X154500Y-3500D01*
X156000D01*
X156750Y-4250D01*
Y-5750D01*
X156000Y-6500D02*X156750Y-5750D01*
X158550Y-9500D02*X159300D01*
X161100Y-8750D02*X161850Y-9500D01*
X161100Y-4250D02*Y-8750D01*
Y-4250D02*X161850Y-3500D01*
X163350D01*
X164100Y-4250D01*
Y-8750D01*
X163350Y-9500D02*X164100Y-8750D01*
X161850Y-9500D02*X163350D01*
X161100Y-8000D02*X164100Y-5000D01*
X165900Y-8750D02*X166650Y-9500D01*
X165900Y-4250D02*Y-8750D01*
Y-4250D02*X166650Y-3500D01*
X168150D01*
X168900Y-4250D01*
Y-8750D01*
X168150Y-9500D02*X168900Y-8750D01*
X166650Y-9500D02*X168150D01*
X165900Y-8000D02*X168900Y-5000D01*
X170700Y-8750D02*X171450Y-9500D01*
X170700Y-4250D02*Y-8750D01*
Y-4250D02*X171450Y-3500D01*
X172950D01*
X173700Y-4250D01*
Y-8750D01*
X172950Y-9500D02*X173700Y-8750D01*
X171450Y-9500D02*X172950D01*
X170700Y-8000D02*X173700Y-5000D01*
X175500Y-8750D02*X176250Y-9500D01*
X175500Y-4250D02*Y-8750D01*
Y-4250D02*X176250Y-3500D01*
X177750D01*
X178500Y-4250D01*
Y-8750D01*
X177750Y-9500D02*X178500Y-8750D01*
X176250Y-9500D02*X177750D01*
X175500Y-8000D02*X178500Y-5000D01*
X180300Y-8750D02*X181050Y-9500D01*
X180300Y-4250D02*Y-8750D01*
Y-4250D02*X181050Y-3500D01*
X182550D01*
X183300Y-4250D01*
Y-8750D01*
X182550Y-9500D02*X183300Y-8750D01*
X181050Y-9500D02*X182550D01*
X180300Y-8000D02*X183300Y-5000D01*
X185100Y-8750D02*X185850Y-9500D01*
X185100Y-4250D02*Y-8750D01*
Y-4250D02*X185850Y-3500D01*
X187350D01*
X188100Y-4250D01*
Y-8750D01*
X187350Y-9500D02*X188100Y-8750D01*
X185850Y-9500D02*X187350D01*
X185100Y-8000D02*X188100Y-5000D01*
X193350Y-7250D02*Y-9500D01*
Y-7250D02*X194100Y-6500D01*
X194850D01*
X195600Y-7250D01*
Y-9500D01*
Y-7250D02*X196350Y-6500D01*
X197100D01*
X197850Y-7250D01*
Y-9500D01*
X192600Y-6500D02*X193350Y-7250D01*
X199650Y-5000D02*Y-5750D01*
Y-7250D02*Y-9500D01*
X201150Y-3500D02*Y-8750D01*
X201900Y-9500D01*
X206850Y-7250D02*Y-9500D01*
Y-7250D02*X207600Y-6500D01*
X209100D01*
X206100D02*X206850Y-7250D01*
X211650Y-9500D02*X213900D01*
X210900Y-8750D02*X211650Y-9500D01*
X210900Y-7250D02*Y-8750D01*
Y-7250D02*X211650Y-6500D01*
X213150D01*
X213900Y-7250D01*
X210900Y-8000D02*X213900D01*
Y-7250D02*Y-8000D01*
X216450Y-6500D02*X218700D01*
X215700Y-7250D02*X216450Y-6500D01*
X215700Y-7250D02*Y-8750D01*
X216450Y-9500D01*
X218700D01*
X221250Y-3500D02*Y-8750D01*
X222000Y-9500D01*
X220500Y-5750D02*X222000D01*
X225750Y-6500D02*X226500Y-7250D01*
X224250Y-6500D02*X225750D01*
X223500Y-7250D02*X224250Y-6500D01*
X223500Y-7250D02*Y-8750D01*
X224250Y-9500D01*
X226500Y-6500D02*Y-8750D01*
X227250Y-9500D01*
X224250D02*X225750D01*
X226500Y-8750D01*
X229800Y-7250D02*Y-9500D01*
Y-7250D02*X230550Y-6500D01*
X231300D01*
X232050Y-7250D01*
Y-9500D01*
X229050Y-6500D02*X229800Y-7250D01*
X236100Y-6500D02*X236850Y-7250D01*
X234600Y-6500D02*X236100D01*
X233850Y-7250D02*X234600Y-6500D01*
X233850Y-7250D02*Y-8750D01*
X234600Y-9500D01*
X236100D01*
X236850Y-8750D01*
X233850Y-11000D02*X234600Y-11750D01*
X236100D01*
X236850Y-11000D01*
Y-6500D02*Y-11000D01*
X238650Y-3500D02*Y-8750D01*
X239400Y-9500D01*
X241650D02*X243900D01*
X240900Y-8750D02*X241650Y-9500D01*
X240900Y-7250D02*Y-8750D01*
Y-7250D02*X241650Y-6500D01*
X243150D01*
X243900Y-7250D01*
X240900Y-8000D02*X243900D01*
Y-7250D02*Y-8000D01*
X248400Y-6500D02*X251400D01*
X255900Y-8750D02*X256650Y-9500D01*
X255900Y-4250D02*Y-8750D01*
Y-4250D02*X256650Y-3500D01*
X258150D01*
X258900Y-4250D01*
Y-8750D01*
X258150Y-9500D02*X258900Y-8750D01*
X256650Y-9500D02*X258150D01*
X255900Y-8000D02*X258900Y-5000D01*
X260700Y-11000D02*X262200Y-9500D01*
X264000Y-8750D02*X264750Y-9500D01*
X264000Y-4250D02*Y-8750D01*
Y-4250D02*X264750Y-3500D01*
X266250D01*
X267000Y-4250D01*
Y-8750D01*
X266250Y-9500D02*X267000Y-8750D01*
X264750Y-9500D02*X266250D01*
X264000Y-8000D02*X267000Y-5000D01*
X272250Y-3500D02*Y-8750D01*
X273000Y-9500D01*
X271500Y-5750D02*X273000D01*
X274500Y-7250D02*Y-8750D01*
Y-7250D02*X275250Y-6500D01*
X276750D01*
X277500Y-7250D01*
Y-8750D01*
X276750Y-9500D02*X277500Y-8750D01*
X275250Y-9500D02*X276750D01*
X274500Y-8750D02*X275250Y-9500D01*
X282750D02*X284250D01*
X283500Y-3500D02*Y-9500D01*
X282000Y-5000D02*X283500Y-3500D01*
X286050Y-8750D02*X286800Y-9500D01*
X286050Y-4250D02*Y-8750D01*
Y-4250D02*X286800Y-3500D01*
X288300D01*
X289050Y-4250D01*
Y-8750D01*
X288300Y-9500D02*X289050Y-8750D01*
X286800Y-9500D02*X288300D01*
X286050Y-8000D02*X289050Y-5000D01*
X290850Y-8750D02*X291600Y-9500D01*
X290850Y-4250D02*Y-8750D01*
Y-4250D02*X291600Y-3500D01*
X293100D01*
X293850Y-4250D01*
Y-8750D01*
X293100Y-9500D02*X293850Y-8750D01*
X291600Y-9500D02*X293100D01*
X290850Y-8000D02*X293850Y-5000D01*
X295650Y-8750D02*X296400Y-9500D01*
X295650Y-4250D02*Y-8750D01*
Y-4250D02*X296400Y-3500D01*
X297900D01*
X298650Y-4250D01*
Y-8750D01*
X297900Y-9500D02*X298650Y-8750D01*
X296400Y-9500D02*X297900D01*
X295650Y-8000D02*X298650Y-5000D01*
X300450Y-9500D02*X301200D01*
X303000Y-8750D02*X303750Y-9500D01*
X303000Y-4250D02*Y-8750D01*
Y-4250D02*X303750Y-3500D01*
X305250D01*
X306000Y-4250D01*
Y-8750D01*
X305250Y-9500D02*X306000Y-8750D01*
X303750Y-9500D02*X305250D01*
X303000Y-8000D02*X306000Y-5000D01*
X307800Y-8750D02*X308550Y-9500D01*
X307800Y-4250D02*Y-8750D01*
Y-4250D02*X308550Y-3500D01*
X310050D01*
X310800Y-4250D01*
Y-8750D01*
X310050Y-9500D02*X310800Y-8750D01*
X308550Y-9500D02*X310050D01*
X307800Y-8000D02*X310800Y-5000D01*
X312600Y-8750D02*X313350Y-9500D01*
X312600Y-4250D02*Y-8750D01*
Y-4250D02*X313350Y-3500D01*
X314850D01*
X315600Y-4250D01*
Y-8750D01*
X314850Y-9500D02*X315600Y-8750D01*
X313350Y-9500D02*X314850D01*
X312600Y-8000D02*X315600Y-5000D01*
X317400Y-8750D02*X318150Y-9500D01*
X317400Y-4250D02*Y-8750D01*
Y-4250D02*X318150Y-3500D01*
X319650D01*
X320400Y-4250D01*
Y-8750D01*
X319650Y-9500D02*X320400Y-8750D01*
X318150Y-9500D02*X319650D01*
X317400Y-8000D02*X320400Y-5000D01*
X322200Y-8750D02*X322950Y-9500D01*
X322200Y-4250D02*Y-8750D01*
Y-4250D02*X322950Y-3500D01*
X324450D01*
X325200Y-4250D01*
Y-8750D01*
X324450Y-9500D02*X325200Y-8750D01*
X322950Y-9500D02*X324450D01*
X322200Y-8000D02*X325200Y-5000D01*
X327000Y-8750D02*X327750Y-9500D01*
X327000Y-4250D02*Y-8750D01*
Y-4250D02*X327750Y-3500D01*
X329250D01*
X330000Y-4250D01*
Y-8750D01*
X329250Y-9500D02*X330000Y-8750D01*
X327750Y-9500D02*X329250D01*
X327000Y-8000D02*X330000Y-5000D01*
X331800Y-11000D02*X333300Y-9500D01*
X335100Y-3500D02*X338100D01*
X335100D02*Y-6500D01*
X335850Y-5750D01*
X337350D01*
X338100Y-6500D01*
Y-8750D01*
X337350Y-9500D02*X338100Y-8750D01*
X335850Y-9500D02*X337350D01*
X335100Y-8750D02*X335850Y-9500D01*
X339900Y-8750D02*X340650Y-9500D01*
X339900Y-4250D02*Y-8750D01*
Y-4250D02*X340650Y-3500D01*
X342150D01*
X342900Y-4250D01*
Y-8750D01*
X342150Y-9500D02*X342900Y-8750D01*
X340650Y-9500D02*X342150D01*
X339900Y-8000D02*X342900Y-5000D01*
X344700Y-8750D02*X345450Y-9500D01*
X344700Y-4250D02*Y-8750D01*
Y-4250D02*X345450Y-3500D01*
X346950D01*
X347700Y-4250D01*
Y-8750D01*
X346950Y-9500D02*X347700Y-8750D01*
X345450Y-9500D02*X346950D01*
X344700Y-8000D02*X347700Y-5000D01*
X349500Y-9500D02*X350250D01*
X352050Y-8750D02*X352800Y-9500D01*
X352050Y-4250D02*Y-8750D01*
Y-4250D02*X352800Y-3500D01*
X354300D01*
X355050Y-4250D01*
Y-8750D01*
X354300Y-9500D02*X355050Y-8750D01*
X352800Y-9500D02*X354300D01*
X352050Y-8000D02*X355050Y-5000D01*
X356850Y-8750D02*X357600Y-9500D01*
X356850Y-4250D02*Y-8750D01*
Y-4250D02*X357600Y-3500D01*
X359100D01*
X359850Y-4250D01*
Y-8750D01*
X359100Y-9500D02*X359850Y-8750D01*
X357600Y-9500D02*X359100D01*
X356850Y-8000D02*X359850Y-5000D01*
X361650Y-8750D02*X362400Y-9500D01*
X361650Y-4250D02*Y-8750D01*
Y-4250D02*X362400Y-3500D01*
X363900D01*
X364650Y-4250D01*
Y-8750D01*
X363900Y-9500D02*X364650Y-8750D01*
X362400Y-9500D02*X363900D01*
X361650Y-8000D02*X364650Y-5000D01*
X366450Y-8750D02*X367200Y-9500D01*
X366450Y-4250D02*Y-8750D01*
Y-4250D02*X367200Y-3500D01*
X368700D01*
X369450Y-4250D01*
Y-8750D01*
X368700Y-9500D02*X369450Y-8750D01*
X367200Y-9500D02*X368700D01*
X366450Y-8000D02*X369450Y-5000D01*
X371250Y-8750D02*X372000Y-9500D01*
X371250Y-4250D02*Y-8750D01*
Y-4250D02*X372000Y-3500D01*
X373500D01*
X374250Y-4250D01*
Y-8750D01*
X373500Y-9500D02*X374250Y-8750D01*
X372000Y-9500D02*X373500D01*
X371250Y-8000D02*X374250Y-5000D01*
X376050Y-8750D02*X376800Y-9500D01*
X376050Y-4250D02*Y-8750D01*
Y-4250D02*X376800Y-3500D01*
X378300D01*
X379050Y-4250D01*
Y-8750D01*
X378300Y-9500D02*X379050Y-8750D01*
X376800Y-9500D02*X378300D01*
X376050Y-8000D02*X379050Y-5000D01*
X384300Y-7250D02*Y-9500D01*
Y-7250D02*X385050Y-6500D01*
X385800D01*
X386550Y-7250D01*
Y-9500D01*
Y-7250D02*X387300Y-6500D01*
X388050D01*
X388800Y-7250D01*
Y-9500D01*
X383550Y-6500D02*X384300Y-7250D01*
X390600Y-5000D02*Y-5750D01*
Y-7250D02*Y-9500D01*
X392100Y-3500D02*Y-8750D01*
X392850Y-9500D01*
X395100D02*X397350D01*
X398100Y-8750D01*
X397350Y-8000D02*X398100Y-8750D01*
X395100Y-8000D02*X397350D01*
X394350Y-7250D02*X395100Y-8000D01*
X394350Y-7250D02*X395100Y-6500D01*
X397350D01*
X398100Y-7250D01*
X394350Y-8750D02*X395100Y-9500D01*
X200750Y78500D02*Y72500D01*
X203000Y78500D02*X203750Y77750D01*
Y73250D01*
X203000Y72500D02*X203750Y73250D01*
X200000Y72500D02*X203000D01*
X200000Y78500D02*X203000D01*
X207800Y75500D02*X208550Y74750D01*
X206300Y75500D02*X207800D01*
X205550Y74750D02*X206300Y75500D01*
X205550Y74750D02*Y73250D01*
X206300Y72500D01*
X208550Y75500D02*Y73250D01*
X209300Y72500D01*
X206300D02*X207800D01*
X208550Y73250D01*
X211850Y78500D02*Y73250D01*
X212600Y72500D01*
X211100Y76250D02*X212600D01*
X214850Y72500D02*X217100D01*
X214100Y73250D02*X214850Y72500D01*
X214100Y74750D02*Y73250D01*
Y74750D02*X214850Y75500D01*
X216350D01*
X217100Y74750D01*
X214100Y74000D02*X217100D01*
Y74750D02*Y74000D01*
X218900Y76250D02*X219650D01*
X218900Y74750D02*X219650D01*
X224150Y78500D02*Y72500D01*
Y78500D02*X226400Y76250D01*
X228650Y78500D01*
Y72500D01*
X230450Y74750D02*Y73250D01*
Y74750D02*X231200Y75500D01*
X232700D01*
X233450Y74750D01*
Y73250D01*
X232700Y72500D02*X233450Y73250D01*
X231200Y72500D02*X232700D01*
X230450Y73250D02*X231200Y72500D01*
X236000Y74750D02*Y72500D01*
Y74750D02*X236750Y75500D01*
X237500D01*
X238250Y74750D01*
Y72500D01*
X235250Y75500D02*X236000Y74750D01*
X242750Y73250D02*X243500Y72500D01*
X242750Y77750D02*Y73250D01*
Y77750D02*X243500Y78500D01*
X245000D01*
X245750Y77750D01*
Y73250D01*
X245000Y72500D02*X245750Y73250D01*
X243500Y72500D02*X245000D01*
X242750Y74000D02*X245750Y77000D01*
X248300Y72500D02*X249800D01*
X249050Y78500D02*Y72500D01*
X247550Y77000D02*X249050Y78500D01*
X254300Y77750D02*Y72500D01*
Y77750D02*X255050Y78500D01*
X257300D01*
X258050Y77750D01*
Y72500D01*
X254300Y75500D02*X258050D01*
X260600Y74750D02*Y70250D01*
X259850Y75500D02*X260600Y74750D01*
X261350Y75500D01*
X262850D01*
X263600Y74750D01*
Y73250D01*
X262850Y72500D02*X263600Y73250D01*
X261350Y72500D02*X262850D01*
X260600Y73250D02*X261350Y72500D01*
X266150Y74750D02*Y72500D01*
Y74750D02*X266900Y75500D01*
X268400D01*
X265400D02*X266150Y74750D01*
X272900Y77750D02*X273650Y78500D01*
X275900D01*
X276650Y77750D01*
Y76250D01*
X272900Y72500D02*X276650Y76250D01*
X272900Y72500D02*X276650D01*
X278450Y73250D02*X279200Y72500D01*
X278450Y77750D02*Y73250D01*
Y77750D02*X279200Y78500D01*
X280700D01*
X281450Y77750D01*
Y73250D01*
X280700Y72500D02*X281450Y73250D01*
X279200Y72500D02*X280700D01*
X278450Y74000D02*X281450Y77000D01*
X284000Y72500D02*X285500D01*
X284750Y78500D02*Y72500D01*
X283250Y77000D02*X284750Y78500D01*
X287300Y77750D02*X288050Y78500D01*
X289550D01*
X290300Y77750D01*
Y73250D01*
X289550Y72500D02*X290300Y73250D01*
X288050Y72500D02*X289550D01*
X287300Y73250D02*X288050Y72500D01*
Y75500D02*X290300D01*
X295550Y72500D02*X297050D01*
X296300Y78500D02*Y72500D01*
X294800Y77000D02*X296300Y78500D01*
X299600Y72500D02*X301100D01*
X300350Y78500D02*Y72500D01*
X298850Y77000D02*X300350Y78500D01*
X302900Y76250D02*X303650D01*
X302900Y74750D02*X303650D01*
X305450Y75500D02*X308450Y78500D01*
X305450Y75500D02*X309200D01*
X308450Y78500D02*Y72500D01*
X311000Y73250D02*X311750Y72500D01*
X311000Y74750D02*Y73250D01*
Y74750D02*X311750Y75500D01*
X313250D01*
X314000Y74750D01*
Y73250D01*
X313250Y72500D02*X314000Y73250D01*
X311750Y72500D02*X313250D01*
X311000Y76250D02*X311750Y75500D01*
X311000Y77750D02*Y76250D01*
Y77750D02*X311750Y78500D01*
X313250D01*
X314000Y77750D01*
Y76250D01*
X313250Y75500D02*X314000Y76250D01*
X315800D02*X316550D01*
X315800Y74750D02*X316550D01*
X318350Y77750D02*X319100Y78500D01*
X321350D01*
X322100Y77750D01*
Y76250D01*
X318350Y72500D02*X322100Y76250D01*
X318350Y72500D02*X322100D01*
X323900Y78500D02*X326900D01*
X323900D02*Y75500D01*
X324650Y76250D01*
X326150D01*
X326900Y75500D01*
Y73250D01*
X326150Y72500D02*X326900Y73250D01*
X324650Y72500D02*X326150D01*
X323900Y73250D02*X324650Y72500D01*
X332150Y78500D02*Y72500D01*
X331400Y78500D02*X334400D01*
X335150Y77750D01*
Y76250D01*
X334400Y75500D02*X335150Y76250D01*
X332150Y75500D02*X334400D01*
X336950Y78500D02*Y72500D01*
Y78500D02*X339200Y76250D01*
X341450Y78500D01*
Y72500D01*
X348950Y78500D02*X349700Y77750D01*
X346700Y78500D02*X348950D01*
X345950Y77750D02*X346700Y78500D01*
X345950Y77750D02*Y73250D01*
X346700Y72500D01*
X348950D01*
X349700Y73250D01*
Y74750D02*Y73250D01*
X348950Y75500D02*X349700Y74750D01*
X347450Y75500D02*X348950D01*
X351500Y78500D02*Y72500D01*
Y78500D02*X353750Y76250D01*
X356000Y78500D01*
Y72500D01*
X357800Y78500D02*X360800D01*
X359300D02*Y72500D01*
X365300Y78500D02*Y73250D01*
X366050Y72500D01*
X367550D01*
X368300Y73250D01*
Y78500D02*Y73250D01*
X370100Y78500D02*X373100D01*
X371600D02*Y72500D01*
X375650D02*X377900D01*
X374900Y73250D02*X375650Y72500D01*
X374900Y77750D02*Y73250D01*
Y77750D02*X375650Y78500D01*
X377900D01*
X200000Y92750D02*Y87500D01*
Y92750D02*X200750Y93500D01*
X203000D01*
X203750Y92750D01*
Y87500D01*
X200000Y90500D02*X203750D01*
X205550D02*Y88250D01*
X206300Y87500D01*
X207800D01*
X208550Y88250D01*
Y90500D02*Y88250D01*
X211100Y93500D02*Y88250D01*
X211850Y87500D01*
X210350Y91250D02*X211850D01*
X213350Y93500D02*Y87500D01*
Y89750D02*X214100Y90500D01*
X215600D01*
X216350Y89750D01*
Y87500D01*
X218150Y89750D02*Y88250D01*
Y89750D02*X218900Y90500D01*
X220400D01*
X221150Y89750D01*
Y88250D01*
X220400Y87500D02*X221150Y88250D01*
X218900Y87500D02*X220400D01*
X218150Y88250D02*X218900Y87500D01*
X223700Y89750D02*Y87500D01*
Y89750D02*X224450Y90500D01*
X225950D01*
X222950D02*X223700Y89750D01*
X227750Y91250D02*X228500D01*
X227750Y89750D02*X228500D01*
X233000Y93500D02*Y87500D01*
Y93500D02*X235250Y91250D01*
X237500Y93500D01*
Y87500D01*
X239300Y92000D02*Y91250D01*
Y89750D02*Y87500D01*
X241550Y90500D02*X243800D01*
X240800Y89750D02*X241550Y90500D01*
X240800Y89750D02*Y88250D01*
X241550Y87500D01*
X243800D01*
X245600Y93500D02*Y87500D01*
Y89750D02*X246350Y90500D01*
X247850D01*
X248600Y89750D01*
Y87500D01*
X252650Y90500D02*X253400Y89750D01*
X251150Y90500D02*X252650D01*
X250400Y89750D02*X251150Y90500D01*
X250400Y89750D02*Y88250D01*
X251150Y87500D01*
X253400Y90500D02*Y88250D01*
X254150Y87500D01*
X251150D02*X252650D01*
X253400Y88250D01*
X256700Y87500D02*X258950D01*
X255950Y88250D02*X256700Y87500D01*
X255950Y89750D02*Y88250D01*
Y89750D02*X256700Y90500D01*
X258200D01*
X258950Y89750D01*
X255950Y89000D02*X258950D01*
Y89750D02*Y89000D01*
X260750Y93500D02*Y88250D01*
X261500Y87500D01*
X266450Y93500D02*Y87500D01*
X265700Y93500D02*X268700D01*
X269450Y92750D01*
Y91250D01*
X268700Y90500D02*X269450Y91250D01*
X266450Y90500D02*X268700D01*
X272000Y87500D02*X274250D01*
X271250Y88250D02*X272000Y87500D01*
X271250Y89750D02*Y88250D01*
Y89750D02*X272000Y90500D01*
X273500D01*
X274250Y89750D01*
X271250Y89000D02*X274250D01*
Y89750D02*Y89000D01*
X276800Y93500D02*Y88250D01*
X277550Y87500D01*
X276050Y91250D02*X277550D01*
X279800Y87500D02*X282050D01*
X279050Y88250D02*X279800Y87500D01*
X279050Y89750D02*Y88250D01*
Y89750D02*X279800Y90500D01*
X281300D01*
X282050Y89750D01*
X279050Y89000D02*X282050D01*
Y89750D02*Y89000D01*
X284600Y89750D02*Y87500D01*
Y89750D02*X285350Y90500D01*
X286850D01*
X283850D02*X284600Y89750D01*
X289400Y87500D02*X291650D01*
X292400Y88250D01*
X291650Y89000D02*X292400Y88250D01*
X289400Y89000D02*X291650D01*
X288650Y89750D02*X289400Y89000D01*
X288650Y89750D02*X289400Y90500D01*
X291650D01*
X292400Y89750D01*
X288650Y88250D02*X289400Y87500D01*
X294950D02*X297200D01*
X294200Y88250D02*X294950Y87500D01*
X294200Y89750D02*Y88250D01*
Y89750D02*X294950Y90500D01*
X296450D01*
X297200Y89750D01*
X294200Y89000D02*X297200D01*
Y89750D02*Y89000D01*
X299750Y89750D02*Y87500D01*
Y89750D02*X300500Y90500D01*
X301250D01*
X302000Y89750D01*
Y87500D01*
X299000Y90500D02*X299750Y89750D01*
X200000Y108500D02*X203000D01*
X201500D02*Y102500D01*
X204800Y107000D02*Y106250D01*
Y104750D02*Y102500D01*
X207050Y108500D02*Y103250D01*
X207800Y102500D01*
X206300Y106250D02*X207800D01*
X209300Y108500D02*Y103250D01*
X210050Y102500D01*
X212300D02*X214550D01*
X211550Y103250D02*X212300Y102500D01*
X211550Y104750D02*Y103250D01*
Y104750D02*X212300Y105500D01*
X213800D01*
X214550Y104750D01*
X211550Y104000D02*X214550D01*
Y104750D02*Y104000D01*
X216350Y106250D02*X217100D01*
X216350Y104750D02*X217100D01*
X221600Y103250D02*X222350Y102500D01*
X221600Y107750D02*X222350Y108500D01*
X221600Y107750D02*Y103250D01*
X224150Y105500D02*Y103250D01*
X224900Y102500D01*
X226400D01*
X227150Y103250D01*
Y105500D02*Y103250D01*
X229700Y104750D02*Y102500D01*
Y104750D02*X230450Y105500D01*
X231200D01*
X231950Y104750D01*
Y102500D01*
X228950Y105500D02*X229700Y104750D01*
X233750Y108500D02*Y102500D01*
Y104750D02*X236000Y102500D01*
X233750Y104750D02*X235250Y106250D01*
X238550Y104750D02*Y102500D01*
Y104750D02*X239300Y105500D01*
X240050D01*
X240800Y104750D01*
Y102500D01*
X237800Y105500D02*X238550Y104750D01*
X242600D02*Y103250D01*
Y104750D02*X243350Y105500D01*
X244850D01*
X245600Y104750D01*
Y103250D01*
X244850Y102500D02*X245600Y103250D01*
X243350Y102500D02*X244850D01*
X242600Y103250D02*X243350Y102500D01*
X247400Y105500D02*Y103250D01*
X248150Y102500D01*
X248900D01*
X249650Y103250D01*
Y105500D02*Y103250D01*
X250400Y102500D01*
X251150D01*
X251900Y103250D01*
Y105500D02*Y103250D01*
X254450Y104750D02*Y102500D01*
Y104750D02*X255200Y105500D01*
X255950D01*
X256700Y104750D01*
Y102500D01*
X253700Y105500D02*X254450Y104750D01*
X258500Y108500D02*X259250Y107750D01*
Y103250D01*
X258500Y102500D02*X259250Y103250D01*
X263750Y105500D02*X266750D01*
X271250Y108500D02*Y102500D01*
Y108500D02*X274250D01*
X271250Y105500D02*X273500D01*
X278300D02*X279050Y104750D01*
X276800Y105500D02*X278300D01*
X276050Y104750D02*X276800Y105500D01*
X276050Y104750D02*Y103250D01*
X276800Y102500D01*
X279050Y105500D02*Y103250D01*
X279800Y102500D01*
X276800D02*X278300D01*
X279050Y103250D01*
X281600Y108500D02*Y102500D01*
Y103250D02*X282350Y102500D01*
X283850D01*
X284600Y103250D01*
Y104750D02*Y103250D01*
X283850Y105500D02*X284600Y104750D01*
X282350Y105500D02*X283850D01*
X281600Y104750D02*X282350Y105500D01*
X287150Y104750D02*Y102500D01*
Y104750D02*X287900Y105500D01*
X289400D01*
X286400D02*X287150Y104750D01*
X291200Y107000D02*Y106250D01*
Y104750D02*Y102500D01*
X293450Y105500D02*X295700D01*
X292700Y104750D02*X293450Y105500D01*
X292700Y104750D02*Y103250D01*
X293450Y102500D01*
X295700D01*
X299750Y105500D02*X300500Y104750D01*
X298250Y105500D02*X299750D01*
X297500Y104750D02*X298250Y105500D01*
X297500Y104750D02*Y103250D01*
X298250Y102500D01*
X300500Y105500D02*Y103250D01*
X301250Y102500D01*
X298250D02*X299750D01*
X300500Y103250D01*
X303800Y108500D02*Y103250D01*
X304550Y102500D01*
X303050Y106250D02*X304550D01*
X306050Y107000D02*Y106250D01*
Y104750D02*Y102500D01*
X307550Y104750D02*Y103250D01*
Y104750D02*X308300Y105500D01*
X309800D01*
X310550Y104750D01*
Y103250D01*
X309800Y102500D02*X310550Y103250D01*
X308300Y102500D02*X309800D01*
X307550Y103250D02*X308300Y102500D01*
X313100Y104750D02*Y102500D01*
Y104750D02*X313850Y105500D01*
X314600D01*
X315350Y104750D01*
Y102500D01*
X312350Y105500D02*X313100Y104750D01*
X320600Y108500D02*Y102500D01*
X322850Y108500D02*X323600Y107750D01*
Y103250D01*
X322850Y102500D02*X323600Y103250D01*
X319850Y102500D02*X322850D01*
X319850Y108500D02*X322850D01*
X326150Y104750D02*Y102500D01*
Y104750D02*X326900Y105500D01*
X328400D01*
X325400D02*X326150Y104750D01*
X332450Y105500D02*X333200Y104750D01*
X330950Y105500D02*X332450D01*
X330200Y104750D02*X330950Y105500D01*
X330200Y104750D02*Y103250D01*
X330950Y102500D01*
X333200Y105500D02*Y103250D01*
X333950Y102500D01*
X330950D02*X332450D01*
X333200Y103250D01*
X335750Y105500D02*Y103250D01*
X336500Y102500D01*
X337250D01*
X338000Y103250D01*
Y105500D02*Y103250D01*
X338750Y102500D01*
X339500D01*
X340250Y103250D01*
Y105500D02*Y103250D01*
X342050Y107000D02*Y106250D01*
Y104750D02*Y102500D01*
X344300Y104750D02*Y102500D01*
Y104750D02*X345050Y105500D01*
X345800D01*
X346550Y104750D01*
Y102500D01*
X343550Y105500D02*X344300Y104750D01*
X350600Y105500D02*X351350Y104750D01*
X349100Y105500D02*X350600D01*
X348350Y104750D02*X349100Y105500D01*
X348350Y104750D02*Y103250D01*
X349100Y102500D01*
X350600D01*
X351350Y103250D01*
X348350Y101000D02*X349100Y100250D01*
X350600D01*
X351350Y101000D01*
Y105500D02*Y101000D01*
M02*
