G04 start of page 8 for group -4078 idx -4078 *
G04 Title: (unknown), bottomsilk *
G04 Creator: pcb 20110918 *
G04 CreationDate: Mon 01 Apr 2013 11:48:25 PM GMT UTC *
G04 For: railfan *
G04 Format: Gerber/RS-274X *
G04 PCB-Dimensions: 100000 50000 *
G04 PCB-Coordinate-Origin: lower left *
%MOIN*%
%FSLAX25Y25*%
%LNBOTTOMSILK*%
%ADD41C,0.0100*%
G54D41*X84150Y3635D02*Y5540D01*
X84785Y3000D02*X84150Y3635D01*
X84785Y3000D02*X88595D01*
X89230Y3635D01*
Y5540D01*
X84150Y7064D02*X89230D01*
X86690D02*X89230Y9604D01*
X86690Y7064D02*X84150Y9604D01*
X89230Y11128D02*Y13668D01*
X84150Y12398D02*X89230D01*
X86690Y15192D02*Y17732D01*
X84150Y19256D02*X89230D01*
X84150D02*Y21796D01*
X89230Y23320D02*Y25860D01*
X84150Y24590D02*X89230D01*
X84150Y28019D02*Y29924D01*
X84785Y27384D02*X84150Y28019D01*
X84785Y27384D02*X88595D01*
X89230Y28019D01*
Y29924D01*
X88595Y31448D02*X89230Y32083D01*
Y33353D01*
X88595Y33988D01*
X84785D02*X88595D01*
X84150Y33353D02*X84785Y33988D01*
X84150Y32083D02*Y33353D01*
X84785Y31448D02*X84150Y32083D01*
X86690D02*Y33988D01*
X89230Y35512D02*Y38052D01*
X86690Y35512D02*X89230D01*
X86690D02*X87325Y36147D01*
Y37417D01*
X86690Y38052D01*
X84785D02*X86690D01*
X84150Y37417D02*X84785Y38052D01*
X84150Y36147D02*Y37417D01*
X84785Y35512D02*X84150Y36147D01*
X88595Y39576D02*X89230Y40211D01*
Y42116D01*
X88595Y42751D01*
X87325D02*X88595D01*
X84150Y39576D02*X87325Y42751D01*
X84150Y39576D02*Y42751D01*
X84785Y44275D02*X84150Y44910D01*
X84785Y44275D02*X86055D01*
X86690Y44910D01*
Y46180D01*
X86055Y46815D01*
X84785D02*X86055D01*
X84150Y46180D02*X84785Y46815D01*
X84150Y44910D02*Y46180D01*
X87325Y44275D02*X86690Y44910D01*
X87325Y44275D02*X88595D01*
X89230Y44910D01*
Y46180D01*
X88595Y46815D01*
X87325D02*X88595D01*
X86690Y46180D02*X87325Y46815D01*
X73500Y19000D02*X74500D01*
X73500D02*X72500Y20000D01*
X73500Y21000D01*
X74500D01*
X72500Y22700D02*Y23700D01*
Y23200D02*X76500D01*
X75500Y22200D02*X76500Y23200D01*
X72500Y24900D02*Y25400D01*
X76000Y26600D02*X76500Y27100D01*
Y28600D01*
X76000Y29100D01*
X75000D02*X76000D01*
X72500Y26600D02*X75000Y29100D01*
X72500Y26600D02*Y29100D01*
X17000Y33220D02*X18220D01*
X17610D02*Y38100D01*
X17000D02*X18220D01*
X19684Y33220D02*Y38100D01*
Y33220D02*Y33830D01*
X22734Y36880D01*
Y33220D02*Y38100D01*
X19440Y23220D02*X20050Y23830D01*
X17610Y23220D02*X19440D01*
X17000Y23830D02*X17610Y23220D01*
X17000Y23830D02*Y27490D01*
X17610Y28100D01*
X19440D01*
X20050Y27490D01*
Y26270D02*Y27490D01*
X19440Y25660D02*X20050Y26270D01*
X18220Y25660D02*X19440D01*
X21514Y23220D02*Y28100D01*
Y23220D02*Y23830D01*
X24564Y26880D01*
Y23220D02*Y28100D01*
X26638Y23220D02*Y28100D01*
X28468Y23220D02*X29078Y23830D01*
Y27490D01*
X28468Y28100D02*X29078Y27490D01*
X26028Y28100D02*X28468D01*
X26028Y23220D02*X28468D01*
X17000Y13830D02*Y17490D01*
Y13830D02*X17610Y13220D01*
X18830D01*
X19440Y13830D01*
Y17490D01*
X18830Y18100D02*X19440Y17490D01*
X17610Y18100D02*X18830D01*
X17000Y17490D02*X17610Y18100D01*
X20904Y13220D02*Y17490D01*
X21514Y18100D01*
X22734D01*
X23344Y17490D01*
Y13220D02*Y17490D01*
X24808Y13220D02*X27248D01*
X26028D02*Y18100D01*
X3500Y3000D02*X4500D01*
X4000D02*Y7000D01*
X3500D02*X4500D01*
X5700Y5500D02*Y6500D01*
Y5500D02*X6200Y5000D01*
X7200D01*
X7700Y5500D01*
Y6500D01*
X7200Y7000D02*X7700Y6500D01*
X6200Y7000D02*X7200D01*
X5700Y6500D02*X6200Y7000D01*
X8900Y5000D02*Y6500D01*
X9400Y7000D01*
X9900D01*
X10400Y6500D01*
Y5000D02*Y6500D01*
X10900Y7000D01*
X11400D01*
X11900Y6500D01*
Y5000D02*Y6500D01*
X14600Y5000D02*X15100Y5500D01*
X13600Y5000D02*X14600D01*
X13100Y5500D02*X13600Y5000D01*
X13100Y5500D02*Y6500D01*
X13600Y7000D01*
X15100Y5000D02*Y6500D01*
X15600Y7000D01*
X13600D02*X14600D01*
X15100Y6500D01*
X20600Y3000D02*X21100Y3500D01*
X19100Y3000D02*X20600D01*
X18600Y3500D02*X19100Y3000D01*
X18600Y3500D02*Y4500D01*
X19100Y5000D01*
X20600D01*
X21100Y5500D01*
Y6500D01*
X20600Y7000D02*X21100Y6500D01*
X19100Y7000D02*X20600D01*
X18600Y6500D02*X19100Y7000D01*
X22800Y5000D02*X24300D01*
X22300Y5500D02*X22800Y5000D01*
X22300Y5500D02*Y6500D01*
X22800Y7000D01*
X24300D01*
X27000Y5000D02*X27500Y5500D01*
X26000Y5000D02*X27000D01*
X25500Y5500D02*X26000Y5000D01*
X25500Y5500D02*Y6500D01*
X26000Y7000D01*
X27500Y5000D02*Y6500D01*
X28000Y7000D01*
X26000D02*X27000D01*
X27500Y6500D01*
X29200Y3000D02*Y6500D01*
X29700Y7000D01*
X31200D02*X32700D01*
X30700Y6500D02*X31200Y7000D01*
X30700Y5500D02*Y6500D01*
Y5500D02*X31200Y5000D01*
X32200D01*
X32700Y5500D01*
X30700Y6000D02*X32700D01*
Y5500D02*Y6000D01*
X35900Y3000D02*Y7000D01*
X35400D02*X35900Y6500D01*
X34400Y7000D02*X35400D01*
X33900Y6500D02*X34400Y7000D01*
X33900Y5500D02*Y6500D01*
Y5500D02*X34400Y5000D01*
X35400D01*
X35900Y5500D01*
X38900Y5000D02*X40400D01*
X38900Y7000D02*X40900D01*
X38900Y3000D02*Y7000D01*
Y3000D02*X40900D01*
X42600Y5500D02*Y7000D01*
Y5500D02*X43100Y5000D01*
X43600D01*
X44100Y5500D01*
Y7000D01*
X42100Y5000D02*X42600Y5500D01*
X46800Y5000D02*X47300Y5500D01*
X45800Y5000D02*X46800D01*
X45300Y5500D02*X45800Y5000D01*
X45300Y5500D02*Y6500D01*
X45800Y7000D01*
X46800D01*
X47300Y6500D01*
X45300Y8000D02*X45800Y8500D01*
X46800D01*
X47300Y8000D01*
Y5000D02*Y8000D01*
X48500Y4000D02*Y4500D01*
Y5500D02*Y7000D01*
X50000Y5500D02*Y7000D01*
Y5500D02*X50500Y5000D01*
X51000D01*
X51500Y5500D01*
Y7000D01*
X49500Y5000D02*X50000Y5500D01*
X53200Y7000D02*X54700D01*
X52700Y6500D02*X53200Y7000D01*
X52700Y5500D02*Y6500D01*
Y5500D02*X53200Y5000D01*
X54200D01*
X54700Y5500D01*
X52700Y6000D02*X54700D01*
Y5500D02*Y6000D01*
X56400Y7000D02*X57900D01*
X55900Y6500D02*X56400Y7000D01*
X55900Y5500D02*Y6500D01*
Y5500D02*X56400Y5000D01*
X57400D01*
X57900Y5500D01*
X55900Y6000D02*X57900D01*
Y5500D02*Y6000D01*
X59600Y5500D02*Y7000D01*
Y5500D02*X60100Y5000D01*
X61100D01*
X59100D02*X59600Y5500D01*
X62300Y4000D02*Y4500D01*
Y5500D02*Y7000D01*
X63800Y5500D02*Y7000D01*
Y5500D02*X64300Y5000D01*
X64800D01*
X65300Y5500D01*
Y7000D01*
X63300Y5000D02*X63800Y5500D01*
X68000Y5000D02*X68500Y5500D01*
X67000Y5000D02*X68000D01*
X66500Y5500D02*X67000Y5000D01*
X66500Y5500D02*Y6500D01*
X67000Y7000D01*
X68000D01*
X68500Y6500D01*
X66500Y8000D02*X67000Y8500D01*
X68000D01*
X68500Y8000D01*
Y5000D02*Y8000D01*
X4500Y42000D02*Y46000D01*
Y44500D02*X5000Y44000D01*
X6000D01*
X6500Y44500D01*
Y46000D01*
X8200Y42000D02*Y45500D01*
X8700Y46000D01*
X7700Y43500D02*X8700D01*
X10200Y42000D02*Y45500D01*
X10700Y46000D01*
X9700Y43500D02*X10700D01*
X12200Y44500D02*Y47500D01*
X11700Y44000D02*X12200Y44500D01*
X12700Y44000D01*
X13700D01*
X14200Y44500D01*
Y45500D01*
X13700Y46000D02*X14200Y45500D01*
X12700Y46000D02*X13700D01*
X12200Y45500D02*X12700Y46000D01*
X15400Y43500D02*X15900D01*
X15400Y44500D02*X15900D01*
X17100Y45500D02*X20100Y42500D01*
X21300Y45500D02*X24300Y42500D01*
X25500Y43000D02*Y43500D01*
Y44500D02*Y46000D01*
X28000Y44000D02*X28500Y44500D01*
X27000Y44000D02*X28000D01*
X26500Y44500D02*X27000Y44000D01*
X26500Y44500D02*Y45500D01*
X27000Y46000D01*
X28500Y44000D02*Y45500D01*
X29000Y46000D01*
X27000D02*X28000D01*
X28500Y45500D01*
X30700Y46000D02*X32200D01*
X32700Y45500D01*
X32200Y45000D02*X32700Y45500D01*
X30700Y45000D02*X32200D01*
X30200Y44500D02*X30700Y45000D01*
X30200Y44500D02*X30700Y44000D01*
X32200D01*
X32700Y44500D01*
X30200Y45500D02*X30700Y46000D01*
X34400Y44000D02*X35900D01*
X33900Y44500D02*X34400Y44000D01*
X33900Y44500D02*Y45500D01*
X34400Y46000D01*
X35900D01*
X38600Y44000D02*X39100Y44500D01*
X37600Y44000D02*X38600D01*
X37100Y44500D02*X37600Y44000D01*
X37100Y44500D02*Y45500D01*
X37600Y46000D01*
X39100Y44000D02*Y45500D01*
X39600Y46000D01*
X37600D02*X38600D01*
X39100Y45500D01*
X40800Y42000D02*Y45500D01*
X41300Y46000D01*
X42800D02*X44300D01*
X42300Y45500D02*X42800Y46000D01*
X42300Y44500D02*Y45500D01*
Y44500D02*X42800Y44000D01*
X43800D01*
X44300Y44500D01*
X42300Y45000D02*X44300D01*
Y44500D02*Y45000D01*
X47500Y42000D02*Y46000D01*
X47000D02*X47500Y45500D01*
X46000Y46000D02*X47000D01*
X45500Y45500D02*X46000Y46000D01*
X45500Y44500D02*Y45500D01*
Y44500D02*X46000Y44000D01*
X47000D01*
X47500Y44500D01*
X48700Y46000D02*X49200D01*
X50900Y44000D02*X52400D01*
X50400Y44500D02*X50900Y44000D01*
X50400Y44500D02*Y45500D01*
X50900Y46000D01*
X52400D01*
X53600Y44500D02*Y45500D01*
Y44500D02*X54100Y44000D01*
X55100D01*
X55600Y44500D01*
Y45500D01*
X55100Y46000D02*X55600Y45500D01*
X54100Y46000D02*X55100D01*
X53600Y45500D02*X54100Y46000D01*
X57300Y44500D02*Y46000D01*
Y44500D02*X57800Y44000D01*
X58300D01*
X58800Y44500D01*
Y46000D01*
Y44500D02*X59300Y44000D01*
X59800D01*
X60300Y44500D01*
Y46000D01*
X56800Y44000D02*X57300Y44500D01*
M02*
