G04 start of page 3 for group 1 idx 1 *
G04 Title: (unknown), solder *
G04 Creator: pcb 20110918 *
G04 CreationDate: Sun 03 Feb 2013 01:26:42 AM GMT UTC *
G04 For: petersen *
G04 Format: Gerber/RS-274X *
G04 PCB-Dimensions: 100000 50000 *
G04 PCB-Coordinate-Origin: lower left *
%MOIN*%
%FSLAX25Y25*%
%LNBOTTOM*%
%ADD27C,0.0380*%
%ADD26C,0.0200*%
%ADD25C,0.0400*%
%ADD24C,0.0600*%
%ADD23C,0.0001*%
G54D23*G36*
X58495Y48500D02*X93000D01*
Y1500D01*
X58495D01*
Y2491D01*
X58500Y2491D01*
X58971Y2528D01*
X59430Y2638D01*
X59866Y2819D01*
X60269Y3065D01*
X60628Y3372D01*
X60935Y3731D01*
X61181Y4134D01*
X61362Y4570D01*
X61472Y5029D01*
X61500Y5500D01*
X61472Y5971D01*
X61362Y6430D01*
X61181Y6866D01*
X60935Y7269D01*
X60628Y7628D01*
X60485Y7750D01*
X60628Y7872D01*
X60935Y8231D01*
X61181Y8634D01*
X61362Y9070D01*
X61472Y9529D01*
X61500Y10000D01*
X61472Y10471D01*
X61362Y10930D01*
X61181Y11366D01*
X60935Y11769D01*
X60628Y12128D01*
X60485Y12250D01*
X60628Y12372D01*
X60935Y12731D01*
X61181Y13134D01*
X61362Y13570D01*
X61472Y14029D01*
X61500Y14500D01*
X61472Y14971D01*
X61362Y15430D01*
X61181Y15866D01*
X60935Y16269D01*
X60628Y16628D01*
X60269Y16935D01*
X59866Y17181D01*
X59430Y17362D01*
X58971Y17472D01*
X58500Y17509D01*
X58495Y17509D01*
Y48500D01*
G37*
G36*
X46245D02*X58495D01*
Y17509D01*
X58029Y17472D01*
X57570Y17362D01*
X57134Y17181D01*
X56731Y16935D01*
X56372Y16628D01*
X56065Y16269D01*
X55819Y15866D01*
X55638Y15430D01*
X55528Y14971D01*
X55491Y14500D01*
X55528Y14029D01*
X55638Y13570D01*
X55819Y13134D01*
X56065Y12731D01*
X56372Y12372D01*
X56515Y12250D01*
X56372Y12128D01*
X56065Y11769D01*
X55819Y11366D01*
X55638Y10930D01*
X55528Y10471D01*
X55491Y10000D01*
X55528Y9529D01*
X55638Y9070D01*
X55819Y8634D01*
X56065Y8231D01*
X56372Y7872D01*
X56515Y7750D01*
X56372Y7628D01*
X56065Y7269D01*
X55819Y6866D01*
X55638Y6430D01*
X55528Y5971D01*
X55491Y5500D01*
X55528Y5029D01*
X55638Y4570D01*
X55819Y4134D01*
X56065Y3731D01*
X56372Y3372D01*
X56731Y3065D01*
X57134Y2819D01*
X57570Y2638D01*
X58029Y2528D01*
X58495Y2491D01*
Y1500D01*
X46245D01*
Y29510D01*
X46250Y29515D01*
X46372Y29372D01*
X46731Y29065D01*
X47134Y28819D01*
X47570Y28638D01*
X48029Y28528D01*
X48500Y28491D01*
X48971Y28528D01*
X49430Y28638D01*
X49866Y28819D01*
X50269Y29065D01*
X50628Y29372D01*
X50750Y29515D01*
X50872Y29372D01*
X51231Y29065D01*
X51634Y28819D01*
X52070Y28638D01*
X52529Y28528D01*
X53000Y28491D01*
X53471Y28528D01*
X53930Y28638D01*
X54366Y28819D01*
X54769Y29065D01*
X55128Y29372D01*
X55435Y29731D01*
X55681Y30134D01*
X55862Y30570D01*
X55972Y31029D01*
X56000Y31500D01*
X55972Y31971D01*
X55862Y32430D01*
X55681Y32866D01*
X55435Y33269D01*
X55128Y33628D01*
X54769Y33935D01*
X54366Y34181D01*
X53930Y34362D01*
X53471Y34472D01*
X53000Y34509D01*
X52529Y34472D01*
X52070Y34362D01*
X51634Y34181D01*
X51231Y33935D01*
X50872Y33628D01*
X50750Y33485D01*
X50628Y33628D01*
X50269Y33935D01*
X49866Y34181D01*
X49430Y34362D01*
X48971Y34472D01*
X48500Y34509D01*
X48029Y34472D01*
X47570Y34362D01*
X47134Y34181D01*
X46731Y33935D01*
X46372Y33628D01*
X46250Y33485D01*
X46245Y33490D01*
Y48500D01*
G37*
G36*
X13613D02*X46245D01*
Y33490D01*
X46128Y33628D01*
X45769Y33935D01*
X45366Y34181D01*
X44930Y34362D01*
X44471Y34472D01*
X44000Y34509D01*
X43529Y34472D01*
X43070Y34362D01*
X42634Y34181D01*
X42231Y33935D01*
X41872Y33628D01*
X41750Y33485D01*
X41628Y33628D01*
X41269Y33935D01*
X40866Y34181D01*
X40430Y34362D01*
X39971Y34472D01*
X39500Y34509D01*
X39029Y34472D01*
X38570Y34362D01*
X38134Y34181D01*
X37731Y33935D01*
X37372Y33628D01*
X37065Y33269D01*
X36819Y32866D01*
X36638Y32430D01*
X36528Y31971D01*
X36491Y31500D01*
X36528Y31029D01*
X36638Y30570D01*
X36819Y30134D01*
X37065Y29731D01*
X37372Y29372D01*
X37731Y29065D01*
X38134Y28819D01*
X38570Y28638D01*
X39029Y28528D01*
X39500Y28491D01*
X39971Y28528D01*
X40430Y28638D01*
X40866Y28819D01*
X41269Y29065D01*
X41628Y29372D01*
X41750Y29515D01*
X41872Y29372D01*
X42231Y29065D01*
X42634Y28819D01*
X43070Y28638D01*
X43529Y28528D01*
X44000Y28491D01*
X44471Y28528D01*
X44930Y28638D01*
X45366Y28819D01*
X45769Y29065D01*
X46128Y29372D01*
X46245Y29510D01*
Y1500D01*
X13613D01*
Y12302D01*
X13652Y12347D01*
X14022Y12951D01*
X14293Y13605D01*
X14458Y14294D01*
X14500Y15000D01*
X14458Y15706D01*
X14293Y16395D01*
X14022Y17049D01*
X13652Y17653D01*
X13613Y17698D01*
Y22853D01*
X13656Y22860D01*
X13768Y22897D01*
X13873Y22952D01*
X13968Y23022D01*
X14051Y23106D01*
X14119Y23202D01*
X14170Y23308D01*
X14318Y23716D01*
X14422Y24137D01*
X14484Y24567D01*
X14505Y25000D01*
X14484Y25433D01*
X14422Y25863D01*
X14318Y26284D01*
X14175Y26694D01*
X14122Y26800D01*
X14053Y26896D01*
X13970Y26981D01*
X13875Y27051D01*
X13769Y27106D01*
X13657Y27143D01*
X13613Y27151D01*
Y30630D01*
X13683Y30659D01*
X13884Y30783D01*
X14064Y30936D01*
X14217Y31116D01*
X14341Y31317D01*
X14431Y31535D01*
X14486Y31765D01*
X14500Y32000D01*
X14486Y38235D01*
X14431Y38465D01*
X14341Y38683D01*
X14217Y38884D01*
X14064Y39064D01*
X13884Y39217D01*
X13683Y39341D01*
X13613Y39370D01*
Y48500D01*
G37*
G36*
Y17698D02*X13192Y18192D01*
X12653Y18652D01*
X12049Y19022D01*
X11395Y19293D01*
X10706Y19458D01*
X10000Y19514D01*
Y20495D01*
X10433Y20516D01*
X10863Y20578D01*
X11284Y20682D01*
X11694Y20825D01*
X11800Y20878D01*
X11896Y20947D01*
X11981Y21030D01*
X12051Y21125D01*
X12106Y21231D01*
X12143Y21343D01*
X12163Y21460D01*
X12164Y21579D01*
X12146Y21696D01*
X12110Y21809D01*
X12057Y21915D01*
X11988Y22012D01*
X11905Y22096D01*
X11809Y22167D01*
X11704Y22221D01*
X11592Y22259D01*
X11475Y22278D01*
X11356Y22279D01*
X11239Y22261D01*
X11126Y22223D01*
X10855Y22124D01*
X10575Y22056D01*
X10289Y22014D01*
X10000Y22000D01*
Y28000D01*
X10289Y27986D01*
X10575Y27944D01*
X10855Y27876D01*
X11128Y27780D01*
X11239Y27742D01*
X11356Y27725D01*
X11474Y27725D01*
X11591Y27745D01*
X11703Y27782D01*
X11807Y27836D01*
X11902Y27906D01*
X11985Y27991D01*
X12054Y28087D01*
X12107Y28192D01*
X12143Y28305D01*
X12160Y28421D01*
X12159Y28539D01*
X12140Y28656D01*
X12103Y28768D01*
X12048Y28873D01*
X11978Y28968D01*
X11894Y29051D01*
X11798Y29119D01*
X11692Y29170D01*
X11284Y29318D01*
X10863Y29422D01*
X10433Y29484D01*
X10000Y29505D01*
Y30507D01*
X13235Y30514D01*
X13465Y30569D01*
X13613Y30630D01*
Y27151D01*
X13540Y27163D01*
X13421Y27164D01*
X13304Y27146D01*
X13191Y27110D01*
X13085Y27057D01*
X12988Y26988D01*
X12904Y26905D01*
X12833Y26809D01*
X12779Y26704D01*
X12741Y26592D01*
X12722Y26475D01*
X12721Y26356D01*
X12739Y26239D01*
X12777Y26126D01*
X12876Y25855D01*
X12944Y25575D01*
X12986Y25289D01*
X13000Y25000D01*
X12986Y24711D01*
X12944Y24425D01*
X12876Y24145D01*
X12780Y23872D01*
X12742Y23761D01*
X12725Y23644D01*
X12725Y23526D01*
X12745Y23409D01*
X12782Y23297D01*
X12836Y23193D01*
X12906Y23098D01*
X12991Y23015D01*
X13087Y22946D01*
X13192Y22893D01*
X13305Y22857D01*
X13421Y22840D01*
X13539Y22841D01*
X13613Y22853D01*
Y17698D01*
G37*
G36*
Y1500D02*X10000D01*
Y10486D01*
X10706Y10542D01*
X11395Y10707D01*
X12049Y10978D01*
X12653Y11348D01*
X13192Y11808D01*
X13613Y12302D01*
Y1500D01*
G37*
G36*
X10000Y48500D02*X13613D01*
Y39370D01*
X13465Y39431D01*
X13235Y39486D01*
X13000Y39500D01*
X10000Y39493D01*
Y48500D01*
G37*
G36*
X6387Y12302D02*X6808Y11808D01*
X7347Y11348D01*
X7951Y10978D01*
X8605Y10707D01*
X9294Y10542D01*
X10000Y10486D01*
Y1500D01*
X6387D01*
Y12302D01*
G37*
G36*
Y30630D02*X6535Y30569D01*
X6765Y30514D01*
X7000Y30500D01*
X10000Y30507D01*
Y29505D01*
X9567Y29484D01*
X9137Y29422D01*
X8716Y29318D01*
X8306Y29175D01*
X8200Y29122D01*
X8104Y29053D01*
X8019Y28970D01*
X7949Y28875D01*
X7894Y28769D01*
X7857Y28657D01*
X7837Y28540D01*
X7836Y28421D01*
X7854Y28304D01*
X7890Y28191D01*
X7943Y28085D01*
X8012Y27988D01*
X8095Y27904D01*
X8191Y27833D01*
X8296Y27779D01*
X8408Y27741D01*
X8525Y27722D01*
X8644Y27721D01*
X8761Y27739D01*
X8874Y27777D01*
X9145Y27876D01*
X9425Y27944D01*
X9711Y27986D01*
X10000Y28000D01*
Y22000D01*
X9711Y22014D01*
X9425Y22056D01*
X9145Y22124D01*
X8872Y22220D01*
X8761Y22258D01*
X8644Y22275D01*
X8526Y22275D01*
X8409Y22255D01*
X8297Y22218D01*
X8193Y22164D01*
X8098Y22094D01*
X8015Y22009D01*
X7946Y21913D01*
X7893Y21808D01*
X7857Y21695D01*
X7840Y21579D01*
X7841Y21461D01*
X7860Y21344D01*
X7897Y21232D01*
X7952Y21127D01*
X8022Y21032D01*
X8106Y20949D01*
X8202Y20881D01*
X8308Y20830D01*
X8716Y20682D01*
X9137Y20578D01*
X9567Y20516D01*
X10000Y20495D01*
X10000D01*
Y19514D01*
X9294Y19458D01*
X8605Y19293D01*
X7951Y19022D01*
X7347Y18652D01*
X6808Y18192D01*
X6387Y17698D01*
Y22849D01*
X6460Y22837D01*
X6579Y22836D01*
X6696Y22854D01*
X6809Y22890D01*
X6915Y22943D01*
X7012Y23012D01*
X7096Y23095D01*
X7167Y23191D01*
X7221Y23296D01*
X7259Y23408D01*
X7278Y23525D01*
X7279Y23644D01*
X7261Y23761D01*
X7223Y23874D01*
X7124Y24145D01*
X7056Y24425D01*
X7014Y24711D01*
X7000Y25000D01*
X7014Y25289D01*
X7056Y25575D01*
X7124Y25855D01*
X7220Y26128D01*
X7258Y26239D01*
X7275Y26356D01*
X7275Y26474D01*
X7255Y26591D01*
X7218Y26703D01*
X7164Y26807D01*
X7094Y26902D01*
X7009Y26985D01*
X6913Y27054D01*
X6808Y27107D01*
X6695Y27143D01*
X6579Y27160D01*
X6461Y27159D01*
X6387Y27147D01*
Y30630D01*
G37*
G36*
Y48500D02*X10000D01*
Y39493D01*
X6765Y39486D01*
X6535Y39431D01*
X6387Y39370D01*
Y48500D01*
G37*
G36*
X2500Y1500D02*Y48500D01*
X6387D01*
Y39370D01*
X6317Y39341D01*
X6116Y39217D01*
X5936Y39064D01*
X5783Y38884D01*
X5659Y38683D01*
X5569Y38465D01*
X5514Y38235D01*
X5500Y38000D01*
X5514Y31765D01*
X5569Y31535D01*
X5659Y31317D01*
X5783Y31116D01*
X5936Y30936D01*
X6116Y30783D01*
X6317Y30659D01*
X6387Y30630D01*
Y27147D01*
X6344Y27140D01*
X6232Y27103D01*
X6127Y27048D01*
X6032Y26978D01*
X5949Y26894D01*
X5881Y26798D01*
X5830Y26692D01*
X5682Y26284D01*
X5578Y25863D01*
X5516Y25433D01*
X5495Y25000D01*
X5516Y24567D01*
X5578Y24137D01*
X5682Y23716D01*
X5825Y23306D01*
X5878Y23200D01*
X5947Y23104D01*
X6030Y23019D01*
X6125Y22949D01*
X6231Y22894D01*
X6343Y22857D01*
X6387Y22849D01*
Y17698D01*
X6348Y17653D01*
X5978Y17049D01*
X5707Y16395D01*
X5542Y15706D01*
X5486Y15000D01*
X5542Y14294D01*
X5707Y13605D01*
X5978Y12951D01*
X6348Y12347D01*
X6387Y12302D01*
Y1500D01*
X2500D01*
G37*
G36*
X35500Y28000D02*Y35000D01*
X56500D01*
Y28000D01*
X35500D01*
G37*
G36*
X54500Y1500D02*Y19500D01*
X62500D01*
Y1500D01*
X54500D01*
G37*
G36*
X7000Y38000D02*Y32000D01*
X13000D01*
Y38000D01*
X7000D01*
G37*
G54D24*X10000Y25000D03*
Y15000D03*
G54D25*X58500Y14500D03*
Y10000D03*
Y5500D03*
X44000Y31500D03*
X53000D03*
X39500D03*
X48500D03*
G54D26*G54D27*M02*
