G04 start of page 7 for group -4079 idx -4079 *
G04 Title: (unknown), topsilk *
G04 Creator: pcb 20110918 *
G04 CreationDate: Sun 03 Feb 2013 01:26:42 AM GMT UTC *
G04 For: petersen *
G04 Format: Gerber/RS-274X *
G04 PCB-Dimensions: 100000 50000 *
G04 PCB-Coordinate-Origin: lower left *
%MOIN*%
%FSLAX25Y25*%
%LNTOPSILK*%
%ADD40C,0.0100*%
%ADD39C,0.0001*%
G54D39*G36*
X51000Y28500D02*X52500D01*
Y27000D01*
X51000D01*
Y28500D01*
G37*
G54D40*X500Y49500D02*X99500D01*
Y500D01*
X500D01*
Y49500D01*
X56607Y34288D02*X57393D01*
X56607Y39798D02*X57393D01*
X54563Y28941D02*X62437D01*
X54563Y17129D02*X62437D01*
X72500Y37043D02*X94500D01*
Y15043D01*
X90500Y11043D02*X68500D01*
Y33043D01*
X15000Y30000D02*Y40000D01*
X5000Y30000D02*X15000D01*
Y40000D02*X5000D01*
X15000Y10000D02*Y40000D01*
X5000Y10000D02*X15000D01*
X5000Y40000D02*Y10000D01*
X35107Y34288D02*X35893D01*
X35107Y39798D02*X35893D01*
X20245Y21936D02*Y21150D01*
X25755Y21936D02*Y21150D01*
X31245Y21936D02*Y21150D01*
X36755Y21936D02*Y21150D01*
X47755Y21936D02*Y21150D01*
X42245Y21936D02*Y21150D01*
X45000Y35000D02*X46500D01*
X44500Y35500D02*X45000Y35000D01*
X44500Y38500D02*Y35500D01*
Y38500D02*X45000Y39000D01*
X46500D01*
X48200Y35000D02*X49200D01*
X48700Y39000D02*Y35000D01*
X47700Y38000D02*X48700Y39000D01*
X50111Y15720D02*Y12220D01*
X50611Y11720D01*
X51611D01*
X52111Y12220D01*
Y15720D02*Y12220D01*
X53811Y11720D02*X54811D01*
X54311Y15720D02*Y11720D01*
X53311Y14720D02*X54311Y15720D01*
X79000Y26043D02*Y22043D01*
X81000D01*
X82700D02*X83700D01*
X83200Y26043D02*Y22043D01*
X82200Y25043D02*X83200Y26043D01*
X21500Y39000D02*X23500D01*
X24000Y38500D01*
Y37500D01*
X23500Y37000D02*X24000Y37500D01*
X22000Y37000D02*X23500D01*
X22000Y39000D02*Y35000D01*
Y37000D02*X24000Y35000D01*
X25200Y38500D02*X25700Y39000D01*
X27200D01*
X27700Y38500D01*
Y37500D01*
X25200Y35000D02*X27700Y37500D01*
X25200Y35000D02*X27700D01*
X20807Y9693D02*X22307D01*
X20307Y10193D02*X20807Y9693D01*
X20307Y13193D02*Y10193D01*
Y13193D02*X20807Y13693D01*
X22307D01*
X23507Y13193D02*X24007Y13693D01*
X25007D01*
X25507Y13193D01*
Y10193D01*
X25007Y9693D02*X25507Y10193D01*
X24007Y9693D02*X25007D01*
X23507Y10193D02*X24007Y9693D01*
Y11693D02*X25507D01*
X31350Y9693D02*X32850D01*
X30850Y10193D02*X31350Y9693D01*
X30850Y13193D02*Y10193D01*
Y13193D02*X31350Y13693D01*
X32850D01*
X34050Y13193D02*X34550Y13693D01*
X36050D01*
X36550Y13193D01*
Y12193D01*
X34050Y9693D02*X36550Y12193D01*
X34050Y9693D02*X36550D01*
X42393Y13693D02*X44393D01*
X44893Y13193D01*
Y12193D01*
X44393Y11693D02*X44893Y12193D01*
X42893Y11693D02*X44393D01*
X42893Y13693D02*Y9693D01*
Y11693D02*X44893Y9693D01*
X46593D02*X47593D01*
X47093Y13693D02*Y9693D01*
X46093Y12693D02*X47093Y13693D01*
M02*
